<!--?xml version="1.0" encoding="utf-8"?-->
<!-- Generator: Adobe Illustrator 22.1.0, SVG Export Plug-In . SVG Version: 6.00 Build 0)  -->
<svg version="1.1" id="_x35_" xmlns="http://www.w3.org/2000/svg" xmlns:xlink="http://www.w3.org/1999/xlink" x="0px" y="0px" viewBox="0 0 512 512" style="enable-background:new 0 0 512 512;" xml:space="preserve">
<style type="text/css">
	.st0{fill:#040000;}
	.st1{fill:#FFFFFF;}
</style>
<g>
	<path class="st0" d="M51.8,219.2c0.5,0.5,0.9,0.9,1.3,1.3c1.8,1.9,3.2,3.7,4.3,5.5c0.5,0.8,0.8,1.9,1.2,3c0.5,1.4,1.1,3,2,4.5
		c1.9,3.3,5,5.2,8.2,5.2c1.5,0,3-0.4,4.4-1.3c2.8-1.8,4.7-5,5.4-9c1.2-8-3.2-15.1-6-18.6c-2.2-2.9-8.3-9.5-16.3-9.8
		c-0.1,0-0.2,0-0.3,0c-2.6,0-5,1-6.8,2.9c-1.8,2-2.8,4.7-2.6,7.4C46.9,214.6,49.9,217.3,51.8,219.2z"></path>
	<path class="st0" d="M38.6,288.6c-0.5,3.6,1.3,7.6,4.9,10.6c3.7,3,8.7,4.7,14.4,4.7c1.8,0,3.7-0.2,5.6-0.5
		c7.2-1.3,13.5-4.6,17.7-9.4c4.3-4.8,6-11.2,4.8-18.1c-1.1-6.5-4-12-7.4-18c-0.5-0.9-1.1-1.9-1.6-2.8l-0.2-0.3
		c-0.8-1.5-1.7-3-2.5-4.4c-0.2-0.4-0.5-0.9-0.7-1.4c-1.2-2.2-2.5-4.8-4.8-6.8c-1.7-1.4-3.6-2.2-5.6-2.2c-3.1,0-5.7,1.8-7.1,4.9
		c-1.3,2.8-1.5,6-0.8,10c1,5.1,3.1,9.6,5.2,14.1c0.6,1.3,1.2,2.5,1.7,3.8c1.1,2.4,2.2,4.9,2.4,7.2c0,0,0,0.1,0,0.1
		c-0.1,0.1-0.2,0.2-0.4,0.4c-1.6,1.3-4,2.3-6.8,2.8c-0.9,0.2-1.8,0.3-2.9,0.3c-1.5,0-3.2-0.2-4.9-0.4l-0.5-0.1
		c-0.2,0-0.6-0.1-0.9-0.1c-0.8-0.1-1.7-0.3-2.7-0.3C41.9,282.7,39.2,285,38.6,288.6z"></path>
	<path class="st0" d="M33.4,274.5c-1.2-4.1-2.7-8.7-6.2-12.3c-2.2-2.2-4.6-3.3-7.1-3.3c-1.2,0-2.3,0.3-3.4,0.8
		c-2.9,1.4-5.5,4.5-6.1,7.5c-0.7,3.1-0.2,6.2,0.4,9c0.7,3.4,1.7,6.6,3,9.3c1.6,3.3,3.6,5.8,6,7.4c1.9,1.3,4,2,6,2
		c2.4,0,4.6-1,6.1-2.8c1-1.2,1.5-2.4,1.9-3.4c0.1-0.2,0.2-0.4,0.2-0.5c0.1-0.1,0.1-0.3,0.2-0.4l0-0.1c0.4-0.9,1.1-2.1,1.2-3.7
		c0.3-2.4-0.6-4.7-1.2-6.4c-0.1-0.4-0.3-0.7-0.4-1.1C33.8,275.9,33.6,275.2,33.4,274.5z"></path>
	<path class="st0" d="M96.7,279.1l0.1,0.6c1.2,4.9,3.1,13.2,10.3,15.1c0.7,0.2,1.4,0.3,2,0.3c4,0,7-2.7,8.4-4.4
		c2.9-3.3,2.4-7.4,2.1-9.3c-0.6-4.6-1.6-9.9-4.1-14.6c-1.6-3.1-5.8-8.3-11.1-8.3c-2,0-3.9,0.7-5.4,2.1c-5.6,4.9-3.7,12.8-2.5,17.6
		C96.5,278.4,96.6,278.8,96.7,279.1z"></path>
	<path class="st0" d="M311.8,208.1c-1-0.2-1.9-0.3-2.8-0.3c-3.9,0-7,1.8-8.8,5.1c-2.3,4.2-1.3,9.3,2.4,12.4c4.1,3.5,7.7,7.1,11.2,11
		l0.3,0.4c1.6,1.8,4,4.5,7.9,5.1c0.4,0.1,0.9,0.1,1.3,0.1c4,0,7.5-2.6,8.7-6.5c2.4-7.6-3.5-14.9-5.5-17.3
		C323.4,214.3,318.4,209.5,311.8,208.1z"></path>
	<path class="st0" d="M333.1,302.6c4.9-5.2,6.5-12,5-20.9c-1-6-3.2-12.2-6.6-19c-1.7-3.4-3.3-6-5-8.4c-1.4-1.9-4.2-5.7-8.9-6.2
		c-0.3,0-0.6,0-0.9,0c-2.5,0-4.6,1-6,3c-2.9,3.9-1.4,10.2-0.6,12.7c0.8,2.5,1.7,5,2.6,7.4c1.2,3.2,2.3,6.3,3.2,9.5
		c0.1,0.4,0.2,0.8,0.3,1.2c0.5,1.8,1.5,5.6,0.7,6.4c-1.4,1.3-3.7,2.3-6.6,2.9c-1,0.2-2.1,0.3-3.3,0.3c-1.6,0-3.4-0.2-5.2-0.4l-0.2,0
		c-0.2,0-0.5-0.1-0.9-0.1c-0.7-0.1-1.7-0.3-2.7-0.3c-3.7,0-6.4,2.3-6.9,6c-0.8,5.7,3.9,9.9,5.4,11c3.7,2.8,8.5,4.2,13.8,4.2
		c2.5,0,5-0.3,7.4-0.9C324,309.6,329.3,306.7,333.1,302.6z"></path>
	<path class="st0" d="M275.4,305.7L275.4,305.7c0.6,0,1.2-0.1,1.8-0.2c3.8-0.9,5.3-4.2,6.1-6c0.2-0.4,0.4-0.8,0.5-1
		c2.1-3.3,1.5-6.2,1.1-8.4l-0.1-0.5c-0.2-1-0.3-2-0.5-3.1c-0.2-1.4-0.5-2.9-0.7-4.4c-0.7-3.8-2.7-13.8-10.6-14.8
		c-0.3,0-0.6-0.1-1-0.1c-3,0-5.9,1.7-8.1,4.7c-2.1,2.8-2.2,6.3-2.2,8.8l0,0.2c-0.1,8.2,1.5,14.8,4.9,19.4
		C267.7,302,270.9,305.7,275.4,305.7z"></path>
	<path class="st0" d="M357.7,266.7c-0.3,0-0.7-0.1-1-0.1c-3.8,0-7.1,2.7-8.4,6.8c-1.6,5.1-0.3,10.1,0.9,14.4l0.3,1.1
		c2.4,9.4,6.5,14.3,11.9,14.3h0c1.6,0,3.2-0.5,4.7-1.4c2.3-1.4,5.5-3.8,6-8c0.3-2.5-0.2-4.9-0.6-6.9l-0.1-0.7
		c-1-5.2-2.2-10.3-5.7-14.6C363.4,268.8,360.6,267.1,357.7,266.7z"></path>
	<path class="st0" d="M230,266.9c0,0,0.2,0,0.2,0c3.5-0.1,7.3-2.5,9.1-5.7c2.2-4.1,0.5-8.4-0.3-10.4c-2.7-6.6-5.6-11.2-9.3-14.4
		c-2-1.8-5.5-3.7-9.1-3.7c-4.3,0-7.5,2.6-8.7,6.9c-1.4,5.3,1.6,10.5,3.9,14.3c0.3,0.5,0.5,0.9,0.8,1.3l0.4,0.7
		C219.2,260,223,266.9,230,266.9z"></path>
	<path class="st0" d="M145.3,295.5c4.4,5.4,10.2,8.4,16.5,8.4c0.7,0,1.4,0,2.1-0.1c3.8-0.4,7.6-2,10.8-4.5
		c6.1,4.4,14.5,7.3,23.2,7.9c0.9,0.1,1.8,0.1,2.7,0.1c4.5,0,8.7-0.8,12.3-2.5c2.4-1.1,4.3-2.3,5.8-3.9c1.4-1.4,3.7-4.3,2.7-7.6
		c-0.6-2-2.3-3.5-4.5-3.9c-0.7-0.1-1.4-0.2-2.1-0.2c-1.1,0-2.1,0.1-3,0.3c-0.5,0.1-0.9,0.1-1.2,0.1c-0.8,0.1-1.6,0.1-2.4,0.1
		c-1.2,0-2.4-0.1-3.5-0.2c-2.9-0.3-5.9-1.2-9.8-2.8c-3.2-1.3-7.5-3-9-5.6c-1.1-1.8-0.9-4.9-0.7-7.9c0-0.8,0.1-1.6,0.1-2.3
		c0.3-9.8-0.3-19.8-0.9-28c2.1-0.4,4.6-0.9,6.9-2.6c2.3-1.7,3.7-4.1,3.9-6.8c0.2-2.6-0.8-5.1-2.8-7c-2.8-2.7-6.6-3.7-9.4-4.2
		l-0.1-1.1c0-0.7-0.1-2.3-0.1-2.3c-0.1-1.3-0.2-2.7-0.3-4c0-0.1,0-0.3,0-0.6l0-0.1c-0.1-1.5-0.2-4.1-0.6-6.4
		c-1.2-6.5-4.8-7.5-6.8-7.5c-0.1,0-0.2,0-0.3,0c-4.1,0.2-6.2,4.1-7,5.8c-1,1.9-1.8,4-2.4,6.7c-0.5,2.1-0.9,4.4-1.3,7
		c-0.1,0.8-0.2,1.6-0.3,2.4c-4.5,0.4-9.4,1.2-13.6,3.9c-3.1,2-4.8,5.5-4.6,9.1c0.3,3.5,2.4,6.5,5.7,8c2.6,1.2,5.4,1.2,7.6,1.2
		c0.3,0,0.6,0,0.8,0c0.9,0,1.9,0,2.9,0c0.3,0,0.5,0,0.8,0c0,0.9,0.1,5.6,0.1,6.9c-0.4,0-0.8,0-1.1,0.1
		c-14.3,1.4-24.6,13.4-23.5,27.5C139.3,284.9,141.6,290.9,145.3,295.5z M161.1,275.8c0.1-0.7,0.9-1.5,2-2c-0.2,1.6-0.5,3.2-0.8,4.7
		l-0.1,0.3c-0.1,0.3-0.2,0.8-0.3,1.3c0-0.1-0.1-0.1-0.1-0.2C161.1,278.4,160.9,276.9,161.1,275.8z"></path>
	<path class="st0" d="M501.6,252.1c-0.1-2.7-0.2-5.2-0.6-7.7c-0.6-3.6-1.6-6.6-3.2-9c-1.1-1.7-4.2-5.8-8.9-5.8c-0.3,0-0.6,0-0.8,0
		c-5.9,0.5-9.2,6.1-9,15l0,0.4c0.1,5,0.3,11.2,3.3,16.3c2,3.5,5.1,5.5,8.3,5.5c0.6,0,1.3-0.1,1.9-0.2c2.8-0.7,6.8-3.5,8.2-6.7
		c1.1-2.4,1-4.9,0.8-6.9C501.7,252.6,501.7,252.4,501.6,252.1z"></path>
	<path class="st0" d="M481.7,279.2c-1,0-1.9,0.2-3,0.7c-1.6,0.7-3.1,1.5-4.5,2.4c-1,0.6-2,1.1-2.9,1.6c-4.3,2-9.1,3.1-14.2,3.1
		c-0.9,0-1.7,0-2.6-0.1c-3.1-0.2-6.3-0.5-8.9-1.6c-0.9-0.4-1.1-0.5-1.2-2.1c0-0.4,0.2-1.2,0.4-1.9c0.1-0.6,0.3-1.2,0.4-1.8
		c0.3-1.9,0.6-3.8,0.8-5.9c0.4-3.5,0.6-7.3,0.8-11.7c0.1-3.6,0.1-7.3,0-11.5c0-1.8-0.1-3.5-0.1-5.2c0-0.8-0.1-1.5-0.1-2.3
		c0.2,0,0.4-0.1,0.6-0.2c1.5-0.5,2.7-1.1,3.9-1.9c2.6-1.8,4.1-4.2,4.4-6.8c0.3-2.9-1.2-5.7-3.9-7.7c-1.1-0.8-2.4-1.4-4.1-2
		c-0.6-0.2-1.3-0.4-2-0.5c0,0-0.1,0-0.1,0c0-0.3-0.1-0.7-0.1-1c-0.2-1.9-0.4-3.5-0.6-5.1c-0.4-3.2-0.9-6.6-2-9.9
		c-1.5-4.8-3.9-7.2-7.2-7.2c-1.3,0-3.3,0.5-5,2.7c-2.2,2.8-2.8,6.3-3.2,9.2l-0.1,0.3c-0.4,2.5-0.7,5.2-0.9,8.7
		c0,0.7-0.1,1.4-0.1,2.1c-5.5,0.4-13.1,1-19.6,3.9c-1.4,0.6-5.9,2.9-7.1,7.5c-0.7,2.5-0.2,5,1.4,7.2c1.3,1.8,3.9,4,9.1,4.4
		c1,0.1,2.1,0.1,3.2,0.1c1.9,0,3.8-0.1,5.6-0.2l1-0.1c2-0.1,4-0.2,6-0.4c0,1.8-0.1,3.6-0.1,5.2c-0.2,0-0.4,0-0.6,0
		c-5.2,0-10.6,1.6-15.1,4.6c-6.9,4.6-11,12.4-11,20.8c0.1,8.6,4,17.2,10.2,22.3c3.7,3.1,8.3,4.8,13,4.8c3.3,0,6.6-0.8,9.5-2.4
		c1,0.7,2,1.4,3.1,1.9c3,1.6,6.6,2.6,10.6,3.2c2.5,0.3,5.1,0.5,7.6,0.5c5.4,0,10.5-0.8,15.2-2.4c7.6-2.6,13.7-7.1,17.2-12.9
		c0.8-1.4,3.4-6.2,1.4-9.8C485.6,280.3,483.8,279.2,481.7,279.2z M423.1,274.1c-0.1,2-0.2,4.6-0.9,6.2c-0.4-0.8-0.8-1.8-0.9-2.7
		C421,275.8,421.6,274.7,423.1,274.1L423.1,274.1z"></path>
	<path class="st1" d="M56,216.7c1.8,1.9,3.6,4.1,4.9,6.4c1.4,2.4,1.8,5.2,3.2,7.5c1.3,2.2,3.6,3.8,6.1,2.3c1.9-1.2,2.9-3.6,3.2-5.8
		c0.8-5.3-1.8-10.9-5-15c-3-3.8-7.7-7.8-12.8-8c-3-0.1-5.1,2.5-4.9,5.4C50.9,212.6,54.1,214.6,56,216.7z"></path>
	<path class="st1" d="M42.7,288.8c-0.4,2.4,1.5,4.8,3.2,6.3c4.4,3.6,10.8,4.1,16.2,3.2c5.6-1,11.2-3.6,15-7.9c3.5-4,4.6-9,3.7-14.2
		c-1-5.9-4-11.3-6.9-16.5c-1.4-2.5-2.9-5-4.3-7.6c-1.3-2.3-2.4-5.1-4.5-6.9c-2-1.7-4.3-1.4-5.4,1c-1,2.2-0.9,4.8-0.4,7.2
		c1.1,5.9,4.2,11.4,6.6,16.8c1.2,2.7,2.4,5.6,2.8,8.5c0.2,2-0.5,3.4-2.1,4.7c-2.5,2-5.7,3.2-8.9,3.8c-3.2,0.6-6.3,0.3-9.5-0.1
		C46.2,287.1,43.1,285.7,42.7,288.8z"></path>
	<path class="st1" d="M23.3,265c-1.4-1.4-3.3-2.5-5.2-1.6c-1.6,0.7-3.2,2.5-3.5,4.3c-0.5,2.3,0,4.8,0.4,7.1c0.6,2.8,1.4,5.6,2.6,8.2
		c1,2.1,2.4,4.2,4.4,5.6c1.7,1.2,4.2,1.9,5.8,0c0.7-0.8,1.1-1.9,1.5-2.9c0.4-0.9,1-1.8,1.1-2.8c0.2-1.8-0.9-3.8-1.4-5.5
		C27.6,273.2,26.5,268.3,23.3,265z"></path>
	<path class="st1" d="M107.7,289.7c2.2,0.6,4.4-1.1,5.8-2.7c1.4-1.6,1.2-3.6,1-5.6c-0.6-4.4-1.5-9.1-3.6-13c-1.5-2.8-5.8-8-9.3-4.9
		c-3.8,3.3-1.8,9.9-0.8,14C101.6,281.4,103.1,288.5,107.7,289.7z"></path>
	<path class="st1" d="M310.3,212.2c-2.6-0.5-5.2-0.1-6.6,2.4c-1.2,2.3-0.7,4.9,1.3,6.6c4.2,3.6,8,7.3,11.6,11.4
		c1.5,1.7,3,3.6,5.3,3.9c2.3,0.3,4.2-1,4.9-3.2c1.4-4.6-1.9-9.6-4.7-13C319.2,216.7,315.1,213.2,310.3,212.2z"></path>
	<path class="st1" d="M329.2,298.8c4.4-4.8,4.8-10.7,3.8-16.9c-1.1-6.1-3.4-12.1-6.2-17.6c-1.4-2.7-2.8-5.3-4.6-7.7
		c-1.4-1.9-3.2-4.1-5.6-4.3c-5-0.5-3.4,7-2.6,9.6c1.8,5.8,4.3,11.3,5.8,17.1c1,3.7,3,9.2-0.3,12.3c-2.4,2.2-5.6,3.4-8.7,4.1
		c-3.4,0.7-6.6,0.4-10.1,0c-2-0.1-5.1-1.5-5.5,1.5c-0.4,2.6,1.7,5.1,3.6,6.6c4.8,3.7,11.7,3.9,17.4,2.5
		C320.9,304.9,325.7,302.6,329.2,298.8z"></path>
	<path class="st1" d="M279.3,295.5c1.2-1.9,0.7-3.5,0.4-5.7c-0.4-2.5-0.7-5-1.2-7.4c-0.7-3.5-2.2-10.5-6.6-11
		c-2-0.2-3.7,1.3-4.8,2.8c-1.3,1.7-1.2,4.3-1.3,6.3c-0.1,5.5,0.7,12,4,16.6c1.2,1.7,3.5,3.8,5.8,3.3
		C277.7,299.9,278.3,297.1,279.3,295.5z"></path>
	<path class="st1" d="M356.6,270.8c-2.2-0.3-3.8,1.5-4.4,3.5c-1.3,4.2,0.1,8.8,1.2,13c0.9,3.7,4.1,13.5,9.7,10.1
		c1.7-1.1,3.6-2.5,3.8-4.6c0.3-2-0.3-4.2-0.7-6.2c-0.9-4.3-1.9-9-4.7-12.5C360.3,272.5,358.6,271,356.6,270.8z"></path>
	<path class="st1" d="M229.5,261.7c2,0,4.1-1.6,5.1-3.3c1.1-2,0.2-4.5-0.6-6.4c-1.8-4.5-4.3-9.4-8.1-12.6c-3-2.6-8.7-4.4-10.1,0.9
		c-1,4,2.4,8.8,4.2,12.1C222,255.8,224.9,261.8,229.5,261.7z"></path>
	<path class="st1" d="M162.9,298.6c4.2-0.4,8.3-2.8,11.1-6c6,5.8,15.5,8.9,23.7,9.5c4.3,0.3,8.8-0.2,12.7-2c1.6-0.7,3.2-1.7,4.4-2.9
		c0.8-0.8,2.7-3.2,0.5-3.6c-1.6-0.3-3.5,0.2-5.1,0.3c-2.2,0.2-4.5,0.1-6.7-0.1c-3.8-0.5-7.4-1.7-11-3.1c-4-1.6-9-3.7-11.3-7.6
		c-2.2-3.7-1.4-8.6-1.3-12.7c0.3-9.7-0.3-19.4-1-29c-0.1-0.8-0.4-2.5,0.1-2.8c0.6-0.4,2.2-0.3,3-0.4c2-0.3,4.2-0.7,5.8-1.9
		c2.3-1.7,2.7-4.6,0.6-6.6c-2.3-2.2-5.9-2.9-8.9-3.2c-0.3,0-1.5,0-1.7-0.1c-0.2-0.2-0.1-1.5-0.1-1.8c-0.1-1.1-0.1-2.2-0.2-3.3
		c-0.1-2.1-0.3-4.2-0.4-6.3c-0.1-1.7-0.1-10.5-2.8-10.3c-1.5,0.1-2.6,2.1-3.1,3.3c-0.9,1.8-1.5,3.7-2,5.6c-0.5,2.1-0.9,4.3-1.2,6.4
		c-0.2,1.3-0.3,2.6-0.4,3.9c0,0.5,0.1,1.3-0.1,1.8c0.2,0.6,0,0.8-0.6,0.6c-0.4,0-0.8,0-1.1,0.1c-4.6,0.3-9.8,0.8-13.8,3.4
		c-3.4,2.2-3.3,7.1,0.5,8.9c2,0.9,4.4,0.8,6.6,0.8c2.7,0.1,5.5,0,8.2-0.1c0.1,5.5,0.2,11.1,0.2,16.6c-1.8-0.3-3.6-0.4-5.4-0.2
		c-11.6,1.1-20.2,10.7-19.2,22.4C143.7,288.2,151.4,299.8,162.9,298.6z M155.9,274.5c0.7-4.1,5.8-7,9.8-6.1c1.5,0.3,1.5,0.9,1.6,2.3
		c0.1,2.7-0.5,5.6-1,8.2c-0.4,1.7-0.7,3.7-1.9,5c-0.8,0.9-2.2,2-3.4,1.7c-1.9-0.4-3.3-2.8-4-4.4C156,279.2,155.5,276.7,155.9,274.5z
		"></path>
	<path class="st1" d="M495.8,244.6c-0.4-2.5-1.1-5.1-2.5-7.2c-1.1-1.7-3.1-3.9-5.4-3.6c-4.3,0.4-4.8,7-4.8,10.2
		c0.1,4.7,0.2,10.3,2.7,14.5c1,1.8,2.9,3.6,5.1,3.1c1.8-0.4,4.3-2.4,5.1-4.1c0.7-1.7,0.5-3.8,0.4-5.6
		C496.3,249.4,496.2,246.9,495.8,244.6z"></path>
	<path class="st1" d="M480,283.6c-2.5,1.1-4.7,2.7-7.2,3.9c-6,2.8-12.5,3.9-19.1,3.4c-3.5-0.2-7.2-0.6-10.5-2
		c-2.8-1.2-3.9-3.1-4-6.1c-0.1-1.6,0.5-3.2,0.8-4.8c0.3-1.9,0.6-3.7,0.8-5.6c0.4-3.8,0.6-7.5,0.7-11.3c0.1-3.8,0.1-7.5,0-11.3
		c0-1.7-0.1-3.4-0.1-5.1c0-0.9-0.1-1.8-0.1-2.6c0-0.7-0.4-2.5-0.2-3.1c0.3-0.7,3-1,3.9-1.3c0.9-0.3,1.9-0.7,2.7-1.3
		c1.1-0.8,2.2-1.9,2.4-3.3c0.1-1.5-0.8-2.6-1.9-3.4c-0.9-0.6-1.8-1-2.8-1.3c-0.5-0.2-1.1-0.3-1.6-0.4c-0.9-0.2-2.1-0.1-2.9-0.5
		c-0.7-0.3-0.3,0.4-0.6-0.7c-0.1-0.3-0.1-0.8-0.1-1.2c-0.1-0.9-0.2-1.9-0.3-2.8c-0.2-1.7-0.4-3.3-0.6-4.9c-0.4-3.1-0.9-6.1-1.8-9.1
		c-0.5-1.7-2-5.7-4-3.1c-1.5,2-2,5-2.4,7.4c-0.5,2.7-0.7,5.5-0.9,8.2c-0.1,1.7-0.2,3.3-0.2,5c0,0,0,1.1,0,1.2
		c-0.2,0.1-1,0.1-1.3,0.1c-0.9,0.1-1.9,0.1-2.8,0.2c-6,0.5-12.5,1-18.1,3.5c-2.9,1.3-6.2,4.4-3.8,7.8c1.3,1.8,3.6,2.3,5.7,2.5
		c3.1,0.2,6.2,0,9.2-0.2c3.7-0.2,7.3-0.5,11-0.9c-0.1,5.2-0.1,10.5-0.4,15.7c-5.9-1.7-12.6-0.2-17.6,3.1c-5.7,3.8-8.9,10.1-8.9,16.9
		c0,7,3.1,14.3,8.5,18.7c5.4,4.5,12.8,4.9,18.7,1c0.3-0.2,0.6-0.5,0.9-0.6c0.3-0.1,0.4-0.2,0.4-0.3c0,0,0.1,0.1,0.5,0.3
		c0.6,0.3,1.1,1.1,1.7,1.5c0.8,0.7,1.7,1.2,2.7,1.7c2.8,1.5,5.9,2.3,9,2.7c6.8,0.9,14.1,0.6,20.6-1.6c5.8-2,11.4-5.6,14.7-10.9
		C481.4,287.4,483.8,282,480,283.6z M427.2,272.8c-0.2,4-0.1,9.5-3.8,12c-4,2.8-6.8-4.1-7.3-7.2c-0.6-4,1.2-7.4,5.1-8.8
		c1.2-0.5,4.9-1.4,5.9,0C427.6,269.8,427.3,272,427.2,272.8z"></path>
</g>
</svg>
