<!--?xml version="1.0" encoding="utf-8"?-->
<!-- Generator: Adobe Illustrator 22.1.0, SVG Export Plug-In . SVG Version: 6.00 Build 0)  -->
<svg version="1.1" id="_x35_" xmlns="http://www.w3.org/2000/svg" xmlns:xlink="http://www.w3.org/1999/xlink" x="0px" y="0px" viewBox="0 0 512 512" style="enable-background:new 0 0 512 512;" xml:space="preserve">
<style type="text/css">
	.st0{fill:#040000;}
	.st1{fill:#FFFFFF;}
</style>
<g>
	<path class="st0" d="M120.9,297.1c-0.1,0.2-0.3,0.4-0.5,0.7c-1.8,2.6-4.7,7-3.5,12.1c0.9,3.9,4.5,8,11.5,8c2.4,0,4.5-0.5,5.6-0.7
		c6.4-1.7,12.4-5.7,18-12.1c11.2-12.9,17.7-29.1,17.9-44.4c0.3-19.4-11.1-36.1-29.5-43.8c-9-3.7-19.4-5.7-30.1-5.7
		c-5.4,0-10.8,0.5-16.1,1.5c-1,0.2-2.1,0.4-3.1,0.6c0.1-4.1,0.2-8.5,0.1-12.9c-0.2-14.3-6.3-19.4-11.6-21.1l-0.1-0.1
		c-0.3-0.4-0.8-0.6-1.3-0.6h-2.3c-2.1,0-5.8,1.4-6.4,1.8c-1.7,0.9-3.3,2.2-4.7,3.8c-2.3,2.7-4,6.3-4.8,10.3
		c-0.8,3.9-1.1,7.7-1.4,11.4l-0.2,1.9c-0.5,5.5-0.9,11.4-1.2,17.9c0,0.8,0,1.5,0,2.2c0,0.1,0,0.1,0,0.2c0,0,0,0,0,0
		c-2.7,1.8-5.4,3.8-8.2,6.1c-2.2,1.8-4.4,3.7-6.5,5.7c-0.2-6.5-1.2-12.7-5.1-16.8c-2.3-2.4-5.4-3.7-8.8-3.7l-0.2,0
		c-9.1,0.1-14.6,8.8-16.7,16.9c-1.6,6.2-1.6,12.5-1.4,18.9l0,0.1c0.4,9.6,1.2,19.6,6.5,27.6c3.6,5.4,9.3,8.7,15.3,8.7
		c2.7,0,5.4-0.6,8-1.9c4.9-2.4,8-6.5,10.7-10.1c0.7-1,1.5-2,2.2-2.8c1.3-1.6,2.7-3.1,4-4.6c0.4,10.2,1.2,21.6,3.9,32.7
		c0.9,3.5,2,6.6,3.5,9.4c2,3.7,4.9,8.2,10.1,9.5c0.8,0.2,1.6,0.3,2.5,0.3c5,0,9.4-3.7,11.7-9.8c1.4-3.6,2-7.6,2-12.7
		c0-7.4-0.1-14.9-0.2-22.2c-0.1-6.5-0.2-13.2-0.2-19.9c0-3.6,0-7.3,0.1-10.9c1.4-0.5,2.7-1,4-1.3c4.9-1.4,10.1-2.1,15.4-2.1
		c1.5,0,3,0.1,4.5,0.2c7,0.5,12.3,1.9,16.3,4.2c4.3,2.4,6.5,6.4,6.6,11.8c0,11.3-6.4,21-13.2,31.3
		C122.9,293.9,121.9,295.5,120.9,297.1z"></path>
	<path class="st0" d="M273.5,278.2l-0.8,4c-1,4.9-2.1,9.9-2.6,15.1c-0.6,5.6-0.8,11.4,1.3,16.9c2.6,6.7,7.6,7.4,9.6,7.4
		c1.7,0,3.3-0.4,4.8-1.3c2.9-1.6,4.6-4.3,5.7-6c3.4-5.2,5.6-10.9,7.5-16c5.5-14,8.6-25.8,9.9-37.1c2-18.2-3.4-33-15.2-41.6
		c-9.6-7-21.1-8.7-32.3-9.4c0.2-3,0.3-5.7,0.3-8.1l0-0.2c0.1-4.6,0.1-11.6-4.6-16.6c-3.1-3.3-6.4-4.1-8.6-4.1
		c-5.1,0-9.5,3.5-12.8,10.5c-1.8,3.8-3.2,8.2-3.8,10.8c-0.5,2-0.9,4.1-1.4,6.4c-0.1,0.4-0.2,0.8-0.2,1.2c-4.1,0.3-7.9,0.7-11.4,1.3
		c-4.2,0.7-9.1,1.6-13.6,3.9c-4.2,2.1-8.7,6.2-9,11.6c-0.1,2.2,0.4,6.3,5.2,9.4c4.7,3,10.4,3.5,14.9,3.8l0.5,0c3,0.2,6,0.3,9,0.4
		c-1.2,10.6-2.2,20.7-2.9,29.3c-0.5,5.7-1,11.4-1.4,17.1l-0.1,1c-0.3,4.8-0.7,10.1,0.7,15.6c0.5,1.8,1.9,7.2,6.9,9.6
		c1.3,0.6,2.8,0.9,4.2,0.9c3.5,0,6.7-1.7,9.6-5.1c3.6-4.2,5.5-9.3,7.1-14.1c3.2-10,4.6-20.3,5.9-30.3l0.3-2.1
		c0.7-5.6,1.4-11.5,2.1-18c0.1-0.6,0.1-1.3,0.2-1.9c0.6,0.1,1.2,0.1,1.8,0.2c7.6,0.7,14.5,1.6,15.9,6c1.3,4,0.8,9.1,0,14.4
		C275.5,268.1,274.5,273.2,273.5,278.2z"></path>
	<path class="st0" d="M322.5,232.4c4,9.3,8.6,20.5,11.8,32.5c0.2,0.6,0.3,1.3,0.5,2c1.1,4.4,2.7,11.1,8.4,14.9
		c2.2,1.5,4.5,2.2,6.9,2.2h0c7.6,0,12.2-7.2,13.8-13.3c3.2-12.4-1-25.8-5.4-37.3c-2.4-6.3-5.3-12.3-8.7-17.8l-0.4-0.6
		c-2.9-4.8-6.4-10.7-12.2-13.9c-2.2-1.2-4.7-1.9-7.1-1.9c-7.4,0-13.3,5.7-13.7,13.2c-0.3,6.2,2.4,11.9,4.7,16.9
		C321.6,230.3,322.1,231.4,322.5,232.4z"></path>
	<path class="st0" d="M457.4,277.9c-4.3-2.4-9.4-3.6-14.8-3.6c-7.3,0-14.7,2.3-20.3,6.4c-10.9,7.8-14.3,22.1-8,34
		c4.7,9,14.2,15.4,26.6,17.8c3.3,0.7,6.7,1,10.1,1c9.9,0,19.4-2.8,27.6-8c13.9-8.9,22.5-24.2,23.1-40.9c0.6-17.1-7.3-32.2-21.2-40.3
		c-6.1-3.6-13.3-6-21.9-7.3c2.4-4,5-8.5,7.2-13.1c3.5-7.4,6.9-17.1,1.4-25.9c-5-8-14.6-10.2-21-11.6c-4.3-1-10-2.1-15.9-2.1
		c-1.2,0-2.3,0-3.4,0.1c-4.8,0.4-11.3,1.7-14.9,6c-2,2.4-2.9,5.3-2.6,8.5c0.6,6.5,5.7,11.5,15.2,14.9c2.8,1,5.4,1.6,8,2.2
		c0,0,0.5,0.1,0.5,0.1c-1.5,2.6-3.1,5.1-4.7,7.6l-0.1,0.2c-0.7,1.1-1.4,2.1-2,3.2l-0.2,0.2c-1.3,2-2.7,4.2-4,6.3l-0.5,0.9
		c-2,3.2-4.3,6.8-5.4,11.1c-1.3,4.8-0.7,9.7,1.8,13.8c2.6,4.3,6.8,7.3,12.1,8.5c4,0.9,7.8,1.1,11.7,1.2c1.4,0,2.8,0.1,4.1,0.2
		c5.8,0.4,11.9,1.1,16.8,3.6c3.6,1.8,4.9,5,5.3,7.4c0.5,2.6,0.2,5.5-0.6,8.3C465.2,284,461.9,280.4,457.4,277.9z"></path>
	<path class="st1" d="M16.3,254c0.3,7.9,0.9,17.3,5.4,24.1c3.2,4.9,8.9,7.1,14.3,4.4c4.6-2.3,7.5-7.4,10.8-11.2
		c4.9-5.8,10.2-11.2,16-16c0.2,15.5,0.3,31.8,4,46.9c0.7,2.7,1.6,5.3,2.9,7.8c1.1,2.2,3,5.3,5.6,6c3,0.7,5.1-2.8,6-5.2
		c1.2-3.3,1.6-6.8,1.6-10.3c0.1-14-0.4-28-0.4-42c0-4.4,0-8.8,0.1-13.2c0-1-0.2-2,0.4-2.6c0.6-0.6,2-0.8,2.8-1.1
		c1.9-0.7,3.9-1.4,5.9-2c7.2-2.1,14.8-2.8,22.3-2.2c6.6,0.5,13.4,1.8,19.2,5c6.7,3.8,10.1,10.2,10.1,17.8
		c0.1,15.4-9.5,27.6-17.5,39.9c-1.2,1.9-3.6,4.9-3,7.4c0.8,3.5,6.1,2.8,8.7,2.2c5.8-1.5,10.6-5.5,14.5-9.9c9.4-10.9,16-25.5,16.2-40
		c0.2-17-9.7-30.8-25.2-37.3c-13.1-5.4-28.5-6.4-42.4-3.8c-3.9,0.7-7.8,1.7-11.6,3c0.2-7.3,0.5-14.7,0.4-22
		c-0.1-6.1-1.3-13.9-8.3-15c0-0.1-2.8,0.8-3.1,0.9c-1,0.6-1.9,1.4-2.7,2.2c-1.7,2-2.7,4.6-3.2,7.2c-0.8,4.1-1.1,8.4-1.5,12.5
		c-0.5,5.9-0.9,11.7-1.2,17.6c-0.1,1.6,0.2,3.6-0.2,5.1c-0.3,1.1,0.2,0.4-0.7,1.3c-0.6,0.5-1.5,0.9-2.1,1.4
		c-2.7,1.8-5.2,3.7-7.8,5.7c-4.8,3.9-9.4,8.2-13.6,12.7c-1,1.1-2,2.4-3.1,3.5c-0.7,0.7-0.7,1-1.1-0.3c-0.4-1.2-0.2-2.9-0.3-4.1
		c-0.2-5.5,2.5-25.3-6.8-25.2c-5.6,0.1-8.9,7.2-10.1,11.7C16.2,242.4,16.2,248.4,16.3,254z"></path>
	<path class="st1" d="M301,259.6c1.5-13.2-1.1-27-12.4-35.2c-10.3-7.5-23.4-7.9-35.6-8.4c0.4-4.9,0.7-9.9,0.8-14.9
		c0-3.9,0.1-8.9-2.7-12c-7-7.5-12.4,9.7-13.4,14.1c-0.5,2.1-0.9,4.1-1.3,6.2c-0.2,1.2-0.5,2.4-0.7,3.6c-0.1,0.6-0.1,1.6-0.4,2.1
		c0,0.3-0.1,0.6-0.1,0.9c-0.6,0-1.2,0-1.7,0.1c-4.8,0.2-9.6,0.7-14.4,1.4c-3.9,0.6-8.1,1.4-11.6,3.2c-3.4,1.7-7.8,5.9-3.1,8.9
		c3.4,2.2,8.3,2.5,12.2,2.8c5.4,0.4,10.8,0.4,16.2,0.7c-1.5,12.2-2.7,24.4-3.8,36.6c-0.5,5.6-1,11.3-1.4,16.9
		c-0.3,4.7-0.7,9.7,0.5,14.3c0.5,1.8,1.3,4.2,3.1,5c2.2,1,4.3-0.8,5.6-2.4c2.8-3.3,4.4-7.6,5.8-11.7c3.2-10,4.5-20.7,5.9-31.1
		c0.8-5.9,1.5-11.9,2.1-17.9c0.2-1.4,0.3-2.9,0.5-4.3c0.1-0.7-0.1-3.9,0.4-4.3c0.5-0.4,3.6,0.3,4.3,0.3c1.4,0.1,2.9,0.2,4.3,0.4
		c8.1,0.7,18.9,1.8,21.9,10.7c1.9,5.6,1.1,11.9,0.3,17.6c-0.8,6-2.1,11.9-3.3,17.8c-1.1,5.3-2.3,10.7-2.8,16.1
		c-0.5,4.4-0.8,9.5,0.9,13.7c0.8,2,2.3,3.8,4.5,2.6c1.4-0.8,2.4-2.4,3.3-3.7c2.9-4.5,5-9.7,6.9-14.7
		C296,283.6,299.7,271.7,301,259.6z"></path>
	<path class="st1" d="M328,228.7c4.7,10.9,9,21.9,12.1,33.4c1.2,4.4,1.9,10.3,6,13c5.2,3.5,8.9-2.7,10.1-7.1
		c2.8-10.7-1.3-23.2-5.2-33.1c-2.2-5.8-5-11.4-8.2-16.7c-2.5-4.2-5.6-9.6-10-12.1c-4.7-2.7-10.2,0.2-10.5,5.6
		C322,217.4,325.8,223.7,328,228.7z"></path>
	<path class="st1" d="M474,318.8c12-7.7,19.4-21.1,19.9-35.3c0.5-13.8-5.6-26.9-17.8-34c-6.6-3.9-14.2-5.8-21.8-6.8
		c-1.8-0.2-3.6-0.4-5.3-0.5c-0.6,0-2.1,0.1-2.5-0.1c-0.5-0.3-0.3,0.3-0.3-0.4c0-0.5,0.9-1.5,1.2-1.9c4-6.4,8.1-12.9,11.3-19.7
		c2.7-5.8,5.5-13.3,1.8-19.3c-3.4-5.4-10.9-7.2-16.7-8.5c-5.7-1.3-11.5-2.2-17.3-1.8c-3.8,0.3-11.7,1.6-11.2,6.9
		c0.5,4.8,6.8,7.6,10.7,9c2.5,0.9,5,1.4,7.5,2c1.6,0.3,3.1,0.7,4.7,1.1c0.9,0.2,2.8,0.4,3.6,1c0.8,0.6,0.5,0.9,0,1.8
		c-0.8,1.5-1.6,3-2.4,4.5c-1.9,3.4-4.1,6.7-6.2,10c-2,3.2-4.1,6.4-6.1,9.6c-2,3.2-4.2,6.5-5.1,10.1c-1.8,6.7,2.2,12.2,8.7,13.7
		c4.8,1.1,9.8,0.9,14.7,1.2c6.6,0.5,13.5,1.3,19.4,4.3c12.4,6.2,11.6,23.5,3.2,32.8c-2.3,2.5-5.1,4.6-8.3,6c3.9-7.9,1.2-17-6.6-21.2
		c-8.4-4.6-20.1-3.2-27.7,2.3c-8,5.8-10.5,16.4-5.9,25.1c4.3,8.2,13.1,12.5,21.9,14.3C452.5,327.1,464.4,325,474,318.8z M442,305.4
		c-1.8-0.4-6.3-2-6.4-4.4c-0.1-2.2,4.3-3.2,5.9-3.5c1.8-0.3,5-0.6,6.3,1.1c1.5,2,1.2,5.5,1.6,7.8C446.8,306.5,444.3,306.1,442,305.4
		z"></path>
</g>
</svg>
