<!--?xml version="1.0" encoding="utf-8"?-->
<!-- Generator: Adobe Illustrator 22.1.0, SVG Export Plug-In . SVG Version: 6.00 Build 0)  -->
<svg version="1.1" id="_x37_" xmlns="http://www.w3.org/2000/svg" xmlns:xlink="http://www.w3.org/1999/xlink" x="0px" y="0px" viewBox="0 0 512 512" style="enable-background:new 0 0 512 512;" xml:space="preserve">
<style type="text/css">
	.st0{fill:#040000;}
	.st1{fill:#FFFFFF;}
</style>
<g>
	<path class="st0" d="M183.4,303.6c-4.6,0-8.3-2.5-10.4-7c-1.6-3.6-2.2-7.6-2.6-11.3c-0.4-3.8-0.6-7.8-0.6-12.6
		c0-3.9,0.2-7.8,0.3-11.5v-0.8c0-0.7,0-1.5,0.1-2.2c0-1.7,0-3.5,0.3-5.3c0.9-6.2,4.4-10.2,8.9-10.2c0.6,0,1.3,0.1,1.8,0.2
		c1.7,0.4,7.4,2.6,6.4,12.7c-0.1,1.1-0.3,2.2-0.4,3.2c-0.2,1.1-0.3,2-0.4,3c-0.3,3.2-0.4,6.7-0.4,11c0,4.4,0.2,7.9,0.6,11.1
		c0,0,0.1,0.7,0.1,0.9c1.4-0.6,2.8-1.1,4.5-1.1c1.9,0,3.8,0.7,5.1,2c1.6,1.6,2.4,3.6,2.2,5.7c-0.4,5-5.7,8.8-6.4,9.2
		c-1.9,1.4-5.1,3-8.8,3.1C183.6,303.6,183.5,303.6,183.4,303.6z"></path>
	<path class="st0" d="M214,307.2c-2.7,0-5.3-0.5-7.8-1.6c-5.6-2.3-9.1-7.9-8.8-14.1c0.2-5.1,2.8-10.1,7.2-13.7
		c2.9-2.3,6.1-3.7,9-4.5c-0.1,0-0.1,0-0.2,0c-1,0.1-2,0.3-3.2,0.3c-0.8,0-1.5-0.1-2.1-0.2c-2.8-0.6-5.2-2.5-6.4-5.2
		c-1.2-2.6-0.9-5.4,0.6-7.9c1.2-1.8,3.6-4.1,8.3-4.1c0.4,0,0.7,0,1,0c0.7,0,1.4,0.1,2.1,0.1c1,0,1.9,0,2.8-0.1h0.8
		c0-0.5,0-1.1,0-1.6c-1.5,0-2.7,0.1-4.1,0.2c-0.3,0-0.5,0.1-0.8,0.1c-0.8,0.1-1.6,0.2-2.5,0.2c-1.6,0-3-0.3-4.3-1
		c-2.2-1.2-3.9-3.3-4.5-5.8c-0.6-2.5,0-5,1.6-7c1.3-1.6,3.6-3.4,7.8-3.4c0.3,0,0.6,0,0.9,0c0.8,0,1.6,0.1,2.4,0.1c0.7,0,1.5,0,2.4,0
		c0.9,0,1.6,0,2.5,0c1.6,0,3,0,4.5-0.2c0.1,0,0.2,0,0.2-0.1c0.5-0.1,1.3-0.3,2.2-0.3c0.1,0,0.2,0,0.4,0c0.6,0,1.2,0.1,1.5,0.2
		c0.1,0,0.1,0,0.2,0c0.1,0,0.3,0,0.4,0c0.6,0,1.3,0,1.9-0.1c0.5,0,1-0.1,1.5-0.1c1.6-0.1,3.7-0.2,5.7-0.3c0.7-0.1,1.4-0.1,2-0.1
		c3.1,0,5.6,1.1,7.4,3.1c1.6,1.9,2.3,4.4,1.8,6.7s-2,4.4-4.3,5.6c-2.2,1.2-4.5,1.4-6.3,1.5h-0.5c-1.2,0.1-2.3,0.1-3.4,0.2
		c0,0.5,0,1,0,1.5c1.6-0.1,3.4-0.2,5.1-0.3h0.1c4.3,0,6.6,2,7.8,3.7c2.5,3.5,1.9,8-1.4,10.8c-1.7,1.4-3.7,2-5.6,2.3
		c0.6,0.2,1.1,0.5,1.6,0.8c1.9,1.2,3.3,3,3.7,5c0.5,1.9,0.1,3.9-1,5.6c-1.6,2.4-4.2,3.8-8,4.3c-0.9,0.1-1.8,0.1-2.6,0.2
		c0,2.2-0.3,5-1.5,7.8C229.6,302.6,222.1,307.2,214,307.2L214,307.2z"></path>
	<path class="st0" d="M289.2,325.2c-5.8,0-10.6-1-14.7-2.9c-6.6-3.2-11.2-9.6-11.9-16.5c-0.6-6.2,1.6-12.8,6.7-19c-0.5-1-1-2-1.4-3
		c-1-2.2-1.8-4.5-2.6-6.7c-1.1-2.9-2.3-7.3,0-11.2c1.5-2.5,3.9-4,6.7-4c2.6,0,5.2,1.4,6.9,3.5c1.7,2.2,2.3,4.8,2.7,6.7
		c0.1,0.6,0.3,1.1,0.4,1.6c0.2,0.6,0.4,1.2,0.6,1.7c1.6-1.1,3.1-2,4.8-2.9c3.8-2.2,7.5-3.4,10.9-3.4c0.3,0,0.6,0,0.9,0
		c5.3,0.3,7,3.6,7.5,5c0.7,2.2,0.7,5.5-3.6,9.1c-2.4,2-5.1,3.3-7.5,4.5c-0.7,0.3-1.4,0.7-2,1c-0.8,0.4-1.5,0.8-2.2,1.3
		c0.6,0.9,1.1,2,1.5,3.3c0.7,2.5,0.2,5-1.3,6.9c-1.4,1.7-3.5,2.8-5.8,2.8c-0.8,0-1.5-0.1-2.2-0.3c-1.2-0.3-2.2-0.9-3.2-1.5
		c-0.5,1.2-0.8,2.2-0.7,3.1c0.1,0.6,0.3,1.5,1.4,2.4c1.6,1.4,4.2,1.9,7.9,1.9c1.7,0,3.6-0.1,5.2-0.3c0.1,0,0.3,0,0.4,0
		c1.1-0.1,3-0.3,5.1-0.3c3,0,7.3,0.4,9.4,3.3c1.2,1.6,1.6,3.7,0.9,5.7c-1.6,4.8-7,6.3-9.2,6.9c-2.3,0.7-4.9,1.1-8.1,1.3
		C291.2,325.2,290.1,325.2,289.2,325.2z"></path>
	<path class="st0" d="M88.9,215.4c-1.1,0-2-0.1-3.2-0.4c-1.3-0.3-2.5-0.7-3.8-1c-2.8-0.7-5.4-1.4-8-1.8c-0.3-0.1-0.7-0.1-1.1-0.2
		c-1.4-0.2-3.1-0.4-4.8-1.3c-3.6-1.8-5.4-5.7-4.6-9.6c0.9-4.2,4-6.6,8.2-6.6c2.2,0,4.5,0.7,6.2,1.2c0.6,0.2,1.1,0.3,1.5,0.4
		c0.8,0.2,1.6,0.4,2.4,0.6c1.6,0.4,3,0.7,4.6,1.1c0.4,0.1,0.8,0.2,1.1,0.3c1.6,0.4,3.4,0.8,5.1,1.6c2.4,1.3,4.2,3.3,4.8,5.6
		c0.6,2,0.2,4.3-1,6.1C94.7,214,92.1,215.4,88.9,215.4L88.9,215.4z"></path>
	<path class="st0" d="M33.5,244c-0.4,0-0.8,0-1.2-0.1c-4-0.6-6.6-4-7.1-9.1c-0.2-2.1,0-4.3,0.1-6.3c0.1-0.7,0.1-1.3,0.1-1.9
		c0.1-1.8,0.2-3.8,0.4-5.9c-0.5,0-1.1,0.1-1.6,0.1c-1.3,0.1-2.5,0.2-3.8,0.3c-0.3,0-0.6,0-0.9,0l0,0c-2.9,0-5.4-1.1-7.3-2.9
		c-1.6-1.6-2.2-3.7-2.1-5.8c0.1-2.4,1.4-4.9,3.4-6.6c1.6-1.4,3.6-2,5.9-2c0.7,0,1.3,0.1,1.8,0.1c0.2,0,0.4,0,0.6,0
		c0.4,0,0.9,0,1.4,0c1.2,0,2.4-0.1,3.8-0.2h0.1V203c0.1-1.5,0.3-2.8,0.3-4.2c0-0.3,0-0.6,0-0.9c0.1-3.1,0.3-9.5,6.1-11.7
		c1-0.4,1.9-0.6,2.9-0.6c2.1,0,4.2,1,5.7,2.6c2.3,2.7,2.8,6.5,2.5,9c-0.1,1-0.2,1.8-0.4,2.8c-0.1,0.7-0.2,1.4-0.3,1.9
		c1.4-0.1,2.8-0.2,4.3-0.3c0.4,0,0.8,0,1.2,0c2.6,0,4.8,0.7,6.5,1.9c1.6,1.3,2.7,3.2,3,5.3c0.3,2.1-0.4,4.3-1.7,5.9
		c-2.6,3.3-6.6,3.5-9,3.6c-0.3,0-0.6,0-0.9,0.1c-1.6,0.1-3.2,0.3-4.8,0.4c-0.2,3.4-0.4,6.8-0.6,10c0,0.5,0,1-0.1,1.5
		c-0.1,2.1-0.1,4.5-0.9,6.8C40,241.6,37,244,33.5,244z"></path>
	<path class="st0" d="M63.2,267.2c-5.8,0-11.2-2.6-14.4-7.1c-3-4.2-4-9.2-2.6-14.2c1.5-5.5,5.6-10.4,11-12.8c2-1,4.1-1.5,5.8-1.8
		v-0.3c-0.2-3.1-0.5-7.8,2.7-11.3c1.6-1.7,3.6-2.6,5.6-2.6c3.4,0,6.5,2.3,7.9,5.8c1,2.4,1.1,4.9,1,7.2c1.6,0.1,3.4,0.3,5.2,0.8
		c4,1.3,5.6,3.5,6.3,5.2c1.4,3.5-0.4,7.4-4,9.2c-2.5,1.3-5.2,1.5-7.8,1.6v0.9c0,0.9,0,1.6,0,2.5c0,3.3-0.7,6.2-2,8.6
		C74.9,264.1,69.4,267.2,63.2,267.2L63.2,267.2z M63.1,248.9c-0.7,0.5-0.9,1.2-0.9,1.3l0,0c0.1,0.2,0.5,0.3,0.8,0.3l0,0
		c0-0.2,0.1-0.5,0.1-1L63.1,248.9L63.1,248.9z"></path>
	<path class="st0" d="M314.6,279.3c-0.3,0-0.5,0-0.8,0c-6.1-0.6-7.5-6.6-8.1-9.2l-0.1-0.5c-0.5-1.8-0.9-3.3-1.4-4.7l-0.1-0.2
		c-0.6-1.5-1.5-3.6-1-6.2c0.8-4.1,4.6-7.3,8.5-7.3c0.1,0,0.2,0,0.4,0c3.6,0.2,6.7,2.7,8,6.6c0.4,1.1,0.6,2.1,0.7,3.1
		c0.1,0.5,0.2,1,0.3,1.4c0.2,0.9,0.4,1.6,0.7,2.5c0.2,0.7,0.3,1.3,0.5,1.9c0.5,2,1.4,5.7-0.9,9.1C319.8,278,317.3,279.3,314.6,279.3
		L314.6,279.3z"></path>
	<path class="st0" d="M327.9,279.3c-2.9,0-5.3-1.5-7-4.2c-1-1.6-1.5-3.4-1.8-4.9l-0.1-0.3c-0.4-1.7-0.8-3.3-1.4-4.8
		c-0.1-0.2-0.1-0.4-0.2-0.5c-0.6-1.5-1.5-3.8-0.9-6.6c0.9-4,4.6-6.9,8.4-6.9c0.3,0,0.5,0,0.8,0c3.5,0.3,6.5,3,7.7,6.9
		c0.3,1,0.5,1.9,0.6,2.7c0.1,0.5,0.2,1,0.3,1.4c0.2,0.8,0.4,1.6,0.6,2.3c0.2,0.7,0.4,1.5,0.6,2.1c0.7,2.6,1,6.4-1.1,9.4
		c-1.3,1.7-3.2,2.9-5.4,3.2C328.5,279.3,328.2,279.3,327.9,279.3L327.9,279.3z"></path>
	<path class="st0" d="M472.8,306.2c-0.2,0-0.4,0-0.6,0c-1.6-0.1-6.9-1.3-7.4-9.7c0-0.6,0-1.2,0-1.7c-4.4,0-8.4-1.6-11.5-4.3
		c-7-6.1-7-16.9-3.6-24c2.6-5.2,7.3-8.4,14-9.6c-5.3,0-10.4,0.1-15.2,0.2c-3,0.1-5.4,0.2-7.7,0.4c-0.9,0.1-1.9,0.2-3.1,0.2l0,0
		c-2.8,0-5-0.5-7.1-1.5c-3.9-1.9-5.7-6-4.3-9.7c0.7-1.8,2.5-4.2,6.8-5.4c2.1-0.6,4.2-0.7,5.6-0.7c0.8,0,1.5,0,2.1,0h0.8
		c0.9,0,1.7,0,2.8,0c1.5,0,2.9,0,4.4,0c5.3-0.1,10.9-0.2,16.5-0.2c0-1.4,0-2.8,0.2-4.3c0.9-5.2,4.2-8.6,8.4-8.6
		c4.3,0,7.6,3.4,8.4,8.6c0.2,1.4,0.3,2.7,0.2,4.1c1,0,2,0,3.1,0c2.2,0,4.1,0.1,5.8,0.3c2.6,0.3,7.3,1.3,9.3,4.8c1.1,1.8,1.2,4,0.4,6
		c-2.4,5.7-9.8,5.7-13.3,5.8c0,0-3,0-3.9,0h-1.6v3.7c0,1.5,0,2.9,0,4.5c0,9-0.2,17.2-0.7,25.1c0,0.4,0,0.8-0.1,1.2
		c-0.1,2.1-0.2,4.6-0.8,6.9C479.8,303.2,476.7,306.2,472.8,306.2z M464.5,277.9c0.1,0,0.2,0,0.3,0c0-0.1,0-0.1,0-0.2
		c0.1-1.4,0.3-2.6,0.4-4v-0.1c-0.1,0-0.1,0.1-0.2,0.1c-0.5,0.3-0.7,1.7-0.7,3C464.4,277.3,464.5,277.7,464.5,277.9z"></path>
	<path class="st0" d="M402.2,306.9c-3.4,0-6.6-2.2-8-5.6c-0.7-1.6-1.1-3.2-1.4-4.7c-0.3-1.3-0.6-2.5-1.1-3.5
		c-1.3-2.9-1.1-5.9,0.5-8.3c1.7-2.6,4.7-4.3,7.6-4.3c1.2,0,2.3,0.3,3.4,0.8c2.5,1.3,4.4,3.7,4.9,7c0.3,1.7,0.8,3.4,1.2,5.2l0.1,0.4
		c0.6,2.5,2.1,8.2-2.8,11.6C405.4,306.4,403.9,306.9,402.2,306.9L402.2,306.9z"></path>
	<path class="st0" d="M414.3,306.9c-1.2,0-2.3-0.3-3.4-0.8c-4.2-1.9-5-6.3-5.6-8.9c-0.1-0.5-0.2-0.9-0.3-1.3
		c-0.2-0.6-0.4-1.3-0.7-1.9c-0.2-0.6-0.5-1.3-0.7-1.9c-1.4-4.2,0.6-8.7,4.8-10.8c1.2-0.6,2.4-0.9,3.7-0.9c2.8,0,5.4,1.5,7,4
		c1.1,1.6,1.4,3.3,1.6,4.5c0,0.2,0.1,0.3,0.1,0.5c0.2,1.1,0.5,2.1,0.8,3.3c0.1,0.5,0.2,0.9,0.4,1.4l0.1,0.4c0.4,1.5,0.9,3.4,0.5,5.5
		C421.7,303.9,418.2,306.9,414.3,306.9L414.3,306.9z"></path>
	<path class="st0" d="M389.4,326.3c-2.2,0-4.5-0.8-7-2.2c-11.8-7.1-18-19.2-15.8-31c1-5,3.3-10,6.9-14.4c-1.5,0.1-2.9,0.2-4.4,0.2
		c-4.4,0.2-8.9,0.5-13.3,1c-0.4,0-0.9,0.1-1.3,0.2c-1.3,0.2-2.7,0.4-4.3,0.4l0,0c-3.6,0-6.4-1.3-8.3-3.6c-2.2-2.8-2.2-6.8-0.1-9.6
		c1.3-1.6,3.9-3.8,8.8-4.1c0.6,0,1.2-0.1,1.8-0.1c0.4,0,0.7,0,1.1,0c0.3,0,0.6,0,1,0c0.3,0,0.5,0,0.8,0c5.2-0.2,10.6-0.5,15.8-0.9
		c4.8-0.3,9.7-0.7,14.5-0.9c1,0,1.9-0.1,3-0.1c2.1-0.1,4.3-0.2,6.4-0.2c1,0,1.8,0,2.7,0.1c1.6,0.1,3,0.7,4,1.2
		c0.2,0.1,0.3,0.2,0.5,0.2c3,1.4,5.1,4.4,5.4,7.8c0.3,3.5-2,6.9-4.3,8.4c-1.6,1.1-3.2,1.6-4.6,2c-0.6,0.2-1.1,0.4-1.6,0.6
		c-2.4,1-4.6,2.2-6.5,3.7c-3.3,2.5-5.7,5.5-7.1,8.5c-1.6,3.8-1.2,7.7,1.2,10.9c1.2,1.6,2.7,3.1,4.7,4.7c0.3,0.3,0.7,0.5,1.1,0.8
		c1.5,1.1,3.3,2.3,4.8,4.4c1.6,2.3,2,5.1,1.2,7.6c-0.8,2.2-2.6,3.8-4.9,4.5C391,326.2,390.2,326.3,389.4,326.3z"></path>
	<path class="st0" d="M127.5,314.4c-1.9,0-3.8-0.2-5.5-0.5c-7.8-1.5-13.6-6.5-15.2-13.2c-1.6-6.2,0.8-12.8,5.8-16.6
		c3.8-2.8,8.7-4.4,14.4-4.4c1.5,0,2.9,0.1,4.3,0.3c2.2,0.3,4.4,0.9,6.2,1.7c-0.6-0.4-1.4-0.8-2.2-1.1c-2.5-0.9-5.4-1.3-8.2-1.3
		c-0.7,0-1.4,0-2,0.1c-1.6,0.1-3.2,0.4-5.3,1c-0.3,0.1-0.5,0.2-0.8,0.2c-1.2,0.4-2.7,0.8-4.5,0.8c-0.4,0-0.9,0-1.3-0.1
		c-4.8-0.6-8.3-4.4-8.3-8.9c0-2.7,1.1-5.4,3-7.5c1.8-1.9,3.9-3.9,5.8-5.7c0.4-0.4,0.8-0.8,1.2-1.2c-0.1,0-0.3,0-0.4,0
		c-1.8,0-3.4-0.2-4.9-0.7c-3-0.9-5.4-2.9-6.3-5.4c-0.8-2.1-0.5-4.5,0.9-6.5c3.2-4.8,9.3-4.8,11.9-4.8c0.4,0,0.8,0,1.2,0h0.5h0.5
		c2.5,0,5.1-0.1,8-0.3c0.4,0,1-0.1,1.6-0.1c1.3-0.1,2.7-0.3,4.4-0.3c9.6,0,11.1,6.1,11.2,8.7c0.3,4.7-2.5,7.5-4.5,9.3l-5.1,5
		c0.2,0,0.5,0.1,0.7,0.1c4.5,0.8,11,2.3,15.7,7.3c8.3,8.5,6.4,20.8,2.2,28.7c-3.3,6.4-8.1,11-13.7,13.1
		C135.2,313.6,131.3,314.4,127.5,314.4z M123.5,296.9c0.2,0.1,0.5,0.2,0.8,0.3c1,0.3,2,0.5,3.3,0.5c1.2,0,2.4-0.2,3.5-0.4
		c-0.2-0.1-0.3-0.2-0.5-0.3c-0.9-0.4-2.2-0.7-3.6-0.7C125.5,296.2,124.3,296.5,123.5,296.9z"></path>
	<path class="st1" d="M182.3,254.4c0.2-2.4,0.2-7-2.9-7.8c-3.3-0.8-4.8,3.8-5,6.2c-0.4,2.3-0.2,4.8-0.3,7.1c-0.2,4.1-0.4,8-0.4,12.1
		c0,4.1,0.2,8,0.6,12.1c0.4,3.3,0.8,6.8,2.2,9.9c1.3,2.7,3.4,4.5,6.5,4.4c2.2-0.1,4.6-1,6.4-2.3c1.9-1.3,6.1-5.4,3.6-7.9
		c-2.6-2.4-7,1.6-9.4,2.4c-1.1,0.1-1.6-6.2-1.7-7.1c-0.4-3.8-0.6-7.7-0.6-11.5c0-3.8,0.1-7.6,0.4-11.3
		C181.6,258.6,182.1,256.5,182.3,254.4z" style="stroke-width: 0px; stroke: rgb(0, 0, 0);"></path>
	<path class="st1" d="M221.2,275.3c0,0.8-0.1,0.7-0.8,0.8c-1.1,0.1-2.1,0.3-3.2,0.5c-3.8,0.7-7.5,1.8-10.4,4.4
		c-3.1,2.5-5.3,6.2-5.5,10.3c-0.2,4.2,2.1,8,6,9.6c7.2,3,17.1,0,20.2-7.4c1.1-2.4,1.1-4.8,1.1-7.5c0-0.5-0.3-2.7,0-3
		c0.3-0.3,2.2-0.1,2.7-0.1c1.4,0,2.7,0,4-0.1c1.6-0.2,3.6-0.7,4.6-2.1c1-1.6,0.2-3.3-1.3-4.2c-2.8-1.7-6.9-1.1-10-1c0-2.3,0-4.7,0-7
		c0-0.9,0-0.9,0.9-0.9c0.5,0,0.9,0,1.4-0.1c1.1,0,2.1-0.1,3.2-0.2c2.6-0.1,6,0.1,8-1.6c1.5-1.2,1.6-2.9,0.5-4.5
		c-1-1.4-2.5-1.7-4.1-1.7c-3.3,0-6.6,0.4-9.8,0.6c0-3.6-0.1-7.3,0.2-10.9c2.5-0.1,5-0.2,7.6-0.4c1.6-0.1,3.4-0.2,4.9-1
		c2.1-1.1,2.6-3.4,1.1-5.2c-1.4-1.6-3.6-1.6-5.5-1.4c-1.9,0.2-3.9,0.3-5.9,0.4c-1.5,0.1-2.9,0.3-4.4,0.2c-0.6,0-1.1-0.2-1.6-0.3
		c-0.8,0-1.4,0.3-2.1,0.4c-2.4,0.2-4.9,0.1-7.4,0.2c-1.7,0.1-3.5,0.1-5.2,0s-3.6,0.2-4.8,1.6c-1.5,1.8-0.7,4.8,1.4,5.9
		c1.6,0.9,3.3,0.4,4.9,0.2c1.8-0.2,3.6-0.2,5.4-0.3c0.6,0,1.3,0,1.8-0.1c0.3,0,0.6,0,0.9,0c0.5,0,0.7-0.2,0.9,0.2
		c0.2,0.4,0.1,1,0.1,1.4c0,0.7,0.1,1.4,0.1,2c0,1.6,0,3.1,0,4.7c0,0.6,0.1,1.5,0,2c-0.2,0.8,0.1,0.3-0.5,0.5c-0.3,0.1-1,0-1.3,0
		c-1.2,0-2.3,0.1-3.5,0.1c-1.7,0.1-3.6,0.1-5.3,0c-1.9-0.1-4.1,0.1-5.1,1.9c-1.6,2.4,0.2,5.5,2.8,6c1.8,0.4,4-0.3,5.9-0.4
		c2.3-0.1,4.7-0.1,7-0.2c0,2,0,4,0,6C221.2,274.2,221.2,274.8,221.2,275.3z M221.2,287.1c0,2-0.4,4-2,5.3c-2.1,1.8-6.8,2.8-9.3,1.2
		c-2.9-1.9,0.7-6.3,2.5-7.5c2.5-1.6,5.8-2.2,8.8-2.6C221.2,284.7,221.2,286,221.2,287.1z" style="stroke-width: 0px; stroke: rgb(0, 0, 0);"></path>
	<path class="st1" d="M276.7,274.1c-0.7-2.2-0.9-4.8-2.3-6.7c-1.6-1.9-4.6-2.5-5.9-0.1c-1.3,2.2-0.6,5,0.3,7.4
		c0.9,2.2,1.6,4.4,2.6,6.5c0.5,1.2,1,2.2,1.6,3.4c0.3,0.6,0.9,1.3,1,1.8s0.1,0.5-0.4,1c-0.3,0.4-0.7,0.7-1,1.1
		c-3.8,4.5-6.8,10.2-6.2,16.2c0.6,5.6,4.4,10.4,9.3,12.8c4.8,2.3,10.4,2.7,15.6,2.4c2.4-0.1,4.8-0.4,7.1-1.1c2-0.6,5.4-1.6,6.1-3.9
		c1.4-4.3-9.2-2.9-11.1-2.7c-5.3,0.5-12,0.9-16.5-2.7c-5.6-4.7-2.6-11.6,1.4-16.3c1.4,1.7,3,3.5,5.2,4.2c2.6,0.7,4.3-1.4,3.7-3.8
		c-0.3-1.1-0.8-1.9-1.5-2.9c-0.4-0.6-2.1-2.3-1.9-2.7c0.2-0.5,1.3-1,1.6-1.2c0.6-0.4,1.2-0.8,1.7-1.2c1.1-0.7,2-1.3,3.1-1.8
		c2.9-1.6,6.1-2.7,8.6-4.8c1.2-1,2.7-2.4,2.1-4.1c-0.5-1.4-2-1.7-3.3-1.8c-3.2-0.2-6.5,1.2-9.2,2.7c-3.1,1.8-6.1,3.8-8.9,6
		C278.6,279.3,277.5,276.8,276.7,274.1z" style="stroke-width: 0px; stroke: rgb(0, 0, 0);"></path>
	<path class="st1" d="M69.4,205.9c1.4,0.7,3,0.7,4.6,1c4.1,0.8,8,1.9,12.1,2.9c2.1,0.5,4.4,0.5,5.7-1.6s-0.1-4.1-2-5
		c-1.6-0.8-3.6-1.2-5.2-1.6c-2.3-0.6-4.7-1.2-7-1.6c-3.2-0.8-9.1-3.7-10.3,1.5C66.9,203.3,67.8,205,69.4,205.9z" style="stroke-width: 0px; stroke: rgb(0, 0, 0);"></path>
	<path class="st1" d="M19.6,215.8c3.6-0.3,7.1-0.5,10.7-0.8c-0.3,3.7-0.5,7.5-0.7,11.2c-0.1,2.5-0.5,5.1-0.3,7.6
		c0.2,1.9,0.9,4.6,3.1,4.9c2,0.3,3.3-1.6,3.8-3.2c0.7-2.2,0.6-4.8,0.8-7.2c0.2-3.9,0.5-7.7,0.7-11.4c0-0.6,0.1-1.1,0.1-1.6
		c0-0.2,0-0.6,0.1-0.7c0.2-0.4,0.1-0.1,0.5-0.3c1-0.3,2.3-0.2,3.3-0.3c1.6-0.2,3.3-0.3,4.9-0.4c2.2-0.2,5,0,6.7-1.9
		c1.2-1.5,1-3.6-0.5-4.7c-1.3-1-3-1.1-4.6-1c-3.2,0.2-6.5,0.5-9.7,0.8c0.3-3.5,0.8-7,1.3-10.5c0.4-2.8-1.2-7.6-4.9-6.1
		c-3.4,1.3-3.1,5.6-3.2,8.5c-0.1,1.7-0.3,3.6-0.4,5.3c0,0.5-0.1,1-0.1,1.4c0,0.3,0,1.8-0.2,2c-0.2,0.2-1.3,0.1-1.6,0.1
		c-0.7,0.1-1.5,0.1-2.1,0.2c-2,0.1-4.1,0.3-6.2,0.2c-1.7-0.1-3.5-0.5-5,0.8c-1.6,1.4-2.4,4-0.9,5.6C16.3,215.5,18,215.9,19.6,215.8z
		" style="stroke-width: 0px; stroke: rgb(0, 0, 0);"></path>
	<path class="st1" d="M51.9,256.7c5,7,16.9,7.2,21.2-0.7c1.1-1.9,1.5-4.2,1.5-6.4c0-1.3,0-2.5,0-3.7s-0.2-2.5,0-3.8
		c0.1-0.4-0.1-0.4,0.2-0.5c0.3-0.1,0.9,0,1.2,0c0.3,0,0.7,0,1,0c0.7,0,1.4,0,2,0c1.9,0,4.2-0.1,5.9-1c1.3-0.7,2.3-1.9,1.7-3.5
		c-0.5-1.4-2-2-3.3-2.4c-2.8-0.9-5.8-0.7-8.7-0.6c0.1-3.3,0.9-7.1-0.4-10.2c-1-2.4-3.7-4.1-5.7-1.7c-2,2.3-1.7,5.7-1.6,8.5
		c0.1,1.1,0.1,2,0.1,3.1c0,0.2,0.1,0.8,0,0.9c0,0.1-0.9,0.1-0.8,0.1c-0.6,0.1-1.2,0.2-1.6,0.3c-2.1,0.4-4.3,0.9-6.2,1.7
		C50.8,240.1,46.5,249.5,51.9,256.7z M59.8,244.5c2.1-1.6,4.8-1.9,7.3-2.3c0,2.2,0,4.6,0,6.8c0,2.4-0.6,4.8-3.3,5.4
		c-2.3,0.6-4.8-0.3-6.1-2.3C56,249.3,57.5,246.1,59.8,244.5z" style="stroke-width: 0px; stroke: rgb(0, 0, 0);"></path>
	<path class="st1" d="M309.3,267.7c0.6,2.3,1.2,5.9,4.3,6.2c1.3,0.1,2.4-0.4,3.1-1.5c1.1-1.6,0.7-3.7,0.2-5.4
		c-0.4-1.5-0.8-3-1.2-4.5c-0.3-1.4-0.5-2.7-0.9-4.1c-0.6-1.6-1.8-3.3-3.8-3.4s-3.8,1.6-4.2,3.5c-0.3,1.4,0.3,2.6,0.8,3.9
		C308.5,264.1,308.8,266,309.3,267.7z" style="stroke-width: 0px; stroke: rgb(0, 0, 0);"></path>
	<path class="st1" d="M320.4,258.4c-0.4,1.6,0.3,2.9,0.9,4.4c0.7,1.8,1.2,3.7,1.6,5.6c0.6,2.4,1.6,5.9,4.8,5.5
		c3.4-0.4,3.2-4.5,2.5-6.9c-0.4-1.5-0.8-3-1.2-4.5c-0.3-1.3-0.5-2.6-0.8-3.9c-0.5-1.6-1.8-3.4-3.7-3.6
		C322.7,254.9,320.8,256.7,320.4,258.4z" style="stroke-width: 0px; stroke: rgb(0, 0, 0);"></path>
	<path class="st1" d="M432,251.3c2.4,1.2,5.1,1.1,7.8,0.9c2.6-0.2,5.3-0.3,8-0.4c7.4-0.1,14.6-0.2,22-0.3c0,2.9,0,5.8,0,8.8
		c-6.4-0.1-13.4,1.3-16.5,7.6c-2.8,5.6-2.4,14.1,2.4,18.4c3.6,3.2,9,3.9,13.4,2.2c-0.1,2.3-0.4,4.7-0.3,7c0.1,1.9,0.7,5.2,3.1,5.4
		c2.3,0.2,3.5-2.8,3.9-4.6c0.6-2.3,0.6-4.8,0.7-7.2c0.4-8.2,0.6-16.6,0.7-24.8c0-2,0-4,0-6c0-0.9,0-1.6,0-2.5c0-0.7,0-1.5,0-2.1
		c0-0.4-0.2-1.5,0-1.8c0.3-0.4,1.9-0.2,2.6-0.2c1.2,0,2.3,0,3.5,0s2.4,0,3.6,0c2.6,0,8.1,0.1,9.4-2.9c1.3-3.1-4-4.2-5.8-4.4
		c-4.4-0.5-8.9-0.1-13.3-0.1c0.1-2.6,0.6-5.4,0.1-8c-0.3-2-1.5-4.8-3.9-4.8s-3.6,2.7-3.9,4.8c-0.4,2.6,0.1,5.4,0.1,8
		c-7.1,0-14.3,0.1-21.3,0.2c-2.4,0-4.9,0.1-7.4,0c-2.4-0.1-4.8-0.2-7.2,0.5c-1.5,0.4-3.2,1.2-3.8,2.7
		C429.3,249.1,430.6,250.6,432,251.3z M468.8,277.4c-0.1,1.6,0,2.8-1.6,3.7c-1.4,0.8-3,0.9-4.5,0.6c-2.8-0.7-3.6-3-3.7-5.6
		c0-2.8,0.5-5.9,3.3-7.2c2.2-1.1,4.8-1.1,7.3-1.1C469.4,271.1,469,274.2,468.8,277.4z" style="stroke-width: 0px; stroke: rgb(0, 0, 0);"></path>
	<path class="st1" d="M400.6,284.8c-1.8-0.9-4.1,0.2-5.1,1.8c-0.8,1.3-0.7,2.7-0.1,4c1.2,2.6,1.4,5.5,2.5,8.2
		c0.9,2.2,3.4,3.7,5.6,2.1c2.3-1.6,1.4-4.8,0.9-7.1c-0.5-1.8-0.9-3.7-1.3-5.5C402.8,286.9,402,285.5,400.6,284.8z" style="stroke-width: 0px; stroke: rgb(0, 0, 0);"></path>
	<path class="st1" d="M408.7,294.2c0.6,2.3,0.9,5.9,3.3,7.1c2.2,1.1,4.7-0.5,4.9-2.7c0.2-1.4-0.2-2.7-0.5-4.1
		c-0.4-1.6-0.9-3.3-1.2-4.9c-0.2-1.2-0.4-2.3-1-3.3c-1.1-1.6-2.9-2.3-4.8-1.5c-1.9,1-3.1,3-2.3,5.2
		C407.8,291.4,408.3,292.8,408.7,294.2z" style="stroke-width: 0px; stroke: rgb(0, 0, 0);"></path>
	<path class="st1" d="M354.6,274.4c5.9-0.7,12-0.9,17.9-1.2c3.1-0.2,6.2-0.4,9.2-0.5c0.8,0,1.5-0.1,2.2-0.1c0.3,0,1.1-0.2,1.3,0
		c0.3,0.2-0.9,0.6-1.1,0.8c-0.5,0.3-0.9,0.6-1.3,1c-1.8,1.5-3.6,3-5.1,4.8c-3.6,4-6.4,8.8-7.4,14.2c-1.9,10.8,4.7,20.9,13.7,26.2
		c1.6,1,3.9,1.9,5.8,1.5c2.4-0.7,2.4-3.2,1.2-4.9c-1.3-1.7-3.1-2.8-4.8-4.1c-2.1-1.6-4.1-3.4-5.6-5.6c-3.3-4.7-3.9-10.2-1.6-15.4
		c1.7-4.2,4.9-7.7,8.4-10.4c2.3-1.7,4.8-3.2,7.6-4.4c1.7-0.8,3.7-1.1,5.3-2.1c1.2-0.8,2.3-2.7,2.2-4.2c-0.1-1.6-1.2-3.2-2.6-3.9
		c-0.9-0.4-1.8-1-2.9-1.1c-3.9-0.2-7.9,0.2-11.7,0.3c-10.2,0.4-20.3,1.4-30.4,1.7c-1.5,0.1-3-0.1-4.5,0c-1.9,0.1-4.2,0.7-5.4,2.3
		c-0.9,1.2-0.9,2.8,0,4C347.2,276,351.6,274.8,354.6,274.4z" style="stroke-width: 0px; stroke: rgb(0, 0, 0);"></path>
	<path class="st1" d="M125.7,244.5c-2.9,0.2-5.8,0.3-8.7,0.3c-3.1,0-7.8-0.3-9.7,2.7c-1.6,2.3,0.8,4.3,2.9,4.9
		c1.8,0.6,3.9,0.6,5.8,0.4c0.9-0.1,10.4-0.8,10.4-0.7c0,0.5-2,2-2.4,2.4c-1.6,1.6-3.2,3.2-4.8,4.8c-2.8,2.7-5.7,5.4-8.4,8.2
		c-1.1,1.2-1.7,2.6-1.7,4.3c0,2.4,2,4.1,4.4,4.4c1.6,0.2,3.1-0.4,4.7-0.8c2-0.6,4.1-1,6.2-1.2c4-0.3,8.2,0.2,12,1.5
		c2.5,0.9,4.8,2.2,6.1,4.7c1,1.9,1.1,4.2,0.9,6.4c-0.2,1.7-0.8,3.4-1.5,4.9c-2.4-4.6-6.6-7.1-11.6-7.8c-5.1-0.7-11.1-0.1-15.3,3.2
		c-3.7,2.8-5.2,7.4-4.1,11.8c1.4,5.4,6.3,8.7,11.5,9.8c4.7,0.9,9.8,0.4,14.3-1.3c5-1.9,8.8-6.2,11.2-10.9c3.8-7.3,4.8-17.1-1.5-23.4
		c-3.5-3.6-8.4-5.1-13.2-5.9c-2.2-0.4-4.5-0.6-6.8-0.6c-0.1,0-4.2,0.2-4.2,0.2c0-0.3,1.3-1.3,1.4-1.4c1-0.9,1.8-1.8,2.8-2.7
		c1.4-1.4,2.7-2.6,4.1-4c1.5-1.5,3-2.9,4.5-4.4c1.7-1.6,3.5-3.3,3.3-5.9C137.5,242.5,129.4,244.3,125.7,244.5z M136.1,298.8
		c-0.1,0.7-1.6,1.3-2.3,1.6c-3.4,1.5-8,1.7-11.5,0.7c-1.8-0.6-3.7-1.6-4.4-3.6c-0.6-1.7-0.1-3.5,1.4-4.6c3.2-2.3,8.9-2.4,12.4-0.9
		c1.6,0.8,2.8,2,3.5,3.7c0.2,0.5,0.4,1.1,0.5,1.6C135.8,297.6,136.2,298.4,136.1,298.8z" style="stroke-width: 0px; stroke: rgb(0, 0, 0);"></path>
</g>
</svg>
