<!--?xml version="1.0" encoding="utf-8"?-->
<!-- Generator: Adobe Illustrator 22.1.0, SVG Export Plug-In . SVG Version: 6.00 Build 0)  -->
<svg version="1.1" id="_x35_" xmlns="http://www.w3.org/2000/svg" xmlns:xlink="http://www.w3.org/1999/xlink" x="0px" y="0px" viewBox="0 0 512 512" style="enable-background:new 0 0 512 512;" xml:space="preserve">
<style type="text/css">
	.st0{fill:#040000;}
	.st1{fill:#FFFFFF;}
</style>
<g>
	<path class="st0" d="M143.5,408.2c-12.5,0-23.3-3.1-31.5-9.2c-5.2,4.2-11.5,6.5-18.2,6.5h-0.6c-20.6-0.4-67-22.5-79.3-88.3
		c-6.4-34.1-4.3-68.3,5.8-96.6c13-36.1,39-62.3,75-76c13.7-5.1,27.1-7.9,39.9-7.9c58,0,91.2,51,103.1,98.8
		c13.5,54.5-11.6,130.4-35.1,151C187.9,399.5,164.1,408.2,143.5,408.2L143.5,408.2z M125.3,334.4c6.8,0,13.1,2.7,17.6,7.6
		c0.4,0.4,1.9,1.4,4.3,1.4c5.2,0,11.5-5,17.3-13.8c8.8-13.4,13.3-51,6-81.2c-4.2-17.3-11.3-29.5-20.4-34.6
		c-8.6-4.9-16.8-7.4-24.2-7.4c-22.4,0-35.7,23.1-41.7,36.8C69,278.3,86,326,104.7,334.8c2.2,1.1,4.3,2.2,6.2,3.7
		C115.4,335.9,120.2,334.4,125.3,334.4z"></path>
	<path class="st0" d="M324.1,413.6c-0.7,0-1.3,0-1.9-0.1c-9.9-0.5-18.5-4.7-24.8-12c-9.9-11.5-13.4-29.9-10.6-56.1
		c3.5-33.4-5.1-131.2-9.8-165.2c-3-21.4-3.5-50.6,11.1-68.3c6.8-8.2,16-12.8,26.6-13.4c0.9,0,1.6-0.1,2.4-0.1
		c15.4,0,24.4,7.3,29.4,13.5c14.9,18.8,10.1,50.2,4.2,75.5c-1.7,7.6-2.4,17.9-2.3,26.8c11.6-10.5,27.1-25,38.9-36.1
		c20.6-19.5,40.2-37.8,50.8-46.1c8-6.3,16.3-9.5,24.7-9.5c12.3,0,23.1,7.1,28.9,18.8c6.2,12.7,4.9,28.2-3.1,38.6
		c-11.9,15.3-66.3,56.1-73.8,61.4c-2,1.7-5.3,5.9-7,9c13.6,15.5,67.8,65.5,82.5,77.2c10.4,8.1,14.1,20.9,9.7,33.5
		c-4.9,14.3-19.4,24.8-34.3,24.8l0,0c-7.6,0-14.9-2.6-21.1-7.5c-8.6-6.8-23.8-24.2-48-52.1c-12.3-14.3-29.9-34.5-38.6-43.2
		c-2.2,1.8-4.8,4.3-6.4,5.9c-1.4,1.4-2.7,2.6-4.1,3.9c-1.4,10.5,0.7,41.8,4.8,69.8c2.2,15.4,3,31.1-6.2,41.7
		C342.2,408.5,335.4,413.6,324.1,413.6z"></path>
	<path class="st1" d="M99.3,159.2c-69.3,26.2-80.4,97.9-70,153.3s48,74,62.7,74.3c14.7,0.3,23.8-28.4,3.9-37.8
		c-28.8-13.6-46.8-72.7-29-114c17.8-41.4,50.6-60.2,90.3-37.6s39.2,111.4,20.2,140.3c-19,28.9-40.6,23-48.4,14.7s-28,8.2-12.6,27
		c15.3,18.8,55.9,8.2,73.6-7.3c17.6-15.5,42-84.5,29.8-133.9C207.3,188.7,168.6,133,99.3,159.2z"></path>
	<path class="st1" d="M478,339.5c-14.9-11.7-85.7-76.5-89.5-85.6c-3.8-9.1,10.8-25.8,14.8-28.3c4.2-2.5,59.9-44.9,70-57.8
		c10.1-13-3.2-41.9-26.3-23.8c-23.1,18.1-98.3,93.6-108.6,97c-10.3,3.5-10.9-39.1-6.2-59.1c4.7-20.1,15-69.4-18.3-67.9
		c-21,1.1-25.9,30.4-21.5,62c4.4,31.6,13.8,132.6,9.9,169.5c-3.9,36.7,6.3,48.6,19.1,49.2c12.8,0.7,15.1-9.4,12-31.3
		c-3.1-21.9-9-77.5-1.8-82.8c7.2-5.4,19.1-21.4,28.9-17.9c9.8,3.5,76.2,87.2,93.1,100.5C470.5,376.6,492.9,351.2,478,339.5z"></path>
</g>
</svg>
