<!--?xml version="1.0" encoding="utf-8"?-->
<!-- Generator: Adobe Illustrator 22.1.0, SVG Export Plug-In . SVG Version: 6.00 Build 0)  -->
<svg version="1.1" id="_x35_" xmlns="http://www.w3.org/2000/svg" xmlns:xlink="http://www.w3.org/1999/xlink" x="0px" y="0px" viewBox="0 0 512 512" style="enable-background:new 0 0 512 512;" xml:space="preserve">
<style type="text/css">
	.st0{fill:#040000;}
	.st1{fill:#FFFFFF;}
</style>
<g>
	<path class="st0" d="M87.6,302.3c-2.1,1.1-4.3,1.9-6.1,2.4c-2.7,0.9-4.4,1.5-4.8,3c-0.3,1.2,0.6,2.2,1.3,2.8
		c1.2,1.1,2.2,2.5,3.4,4.3c2.2,3.2,5.3,7.6,11.8,12.9l1.2,1c0.2,0.2,0.5,0.3,0.8,0.3h1.6c9.7,0,23-10.2,30.2-23.2
		c7.1-12.8,7.4-25.8,0.7-36.5c-9.9-16-25-24.1-44.7-24.1c-4,0-8.2,0.3-12.5,1c-0.1-2.9-0.1-5.8-0.2-8.9c15.4-1.2,18.9-1.8,20.2-2
		c0.2,0,0.3-0.1,0.5-0.1c2.8-0.2,4.5-0.6,5.5-1.8c0.9-1.1,1-2.7,0.8-4.6c-0.5-4.4-2.2-18.1-2.2-18.4l-0.9-4.1c-0.1-0.6-0.6-1-1.2-1
		c-0.1,0-0.1,0-0.2,0l-4.1,0.6c-0.4,0-8.4,1.2-19.1,2.5c-0.3-10-0.5-16.9-0.5-17.6l-0.1-3.6c0-0.6-0.5-1.1-1.1-1.2l-18.5-1.9
		c-1.1-0.8-2.2-1.2-3.1-1.2c-0.8,0-1.6,0.3-2.1,0.9c-0.4,0.4-0.8,1.2-0.7,2.5l0.3,2.5c0,0.7,0.3,10,0.5,22.4
		c-9.1,0.8-16.1,1.2-21,1.2c-3.2,0-4.8-0.2-5.4-0.3l-2.1-0.7c-0.5-0.2-1-0.3-1.5-0.3c-0.8,0-1.6,0.3-2.1,0.8
		c-0.7,0.7-1.1,1.8-1.1,3.3l-0.9,24.7c0,0.3,0.1,0.7,0.4,0.9c0.2,0.2,0.5,0.3,0.9,0.3c0,0,0,0,0.1,0l4.9-0.3
		c0.1,0,13.3-0.8,28.5-1.8c0.1,5.1,0.2,9.9,0.2,14.2c-1.3,0.5-2.6,1-3.9,1.6c-16.4,6.8-26.9,19.2-28.3,33.1
		c-1,10.5,3.3,20,11.5,25.5c5.2,3.5,11.5,5.3,18.3,5.3c14,0,26.8-7.6,28.1-16.5c0.3-1.8,0.5-6.7,0.2-28.4c1.9-0.3,3.8-0.5,5.7-0.8
		c1.5-0.2,3-0.3,4.5-0.3c7.8,0,14.5,2.6,18.5,7c2.1,2.4,3.2,5.2,3,7.5C101.8,294.7,91.8,300,87.6,302.3z M38.2,290.4
		c0.2-1.9,2.3-5,7.1-8c-0.1,2.8-0.2,3.4-0.2,3.4c-0.7,3.6-3.1,7.1-4.4,7.1c-0.2,0-0.8-0.1-1.9-0.9C38.3,291.6,38.1,291.2,38.2,290.4
		z"></path>
	<path class="st0" d="M107.5,210.7c-0.7,3.5,3.1,8.7,3.6,9.3c1.8,2.4,8.5,13.4,12.6,19.9c1.5,2.5,2.8,4.5,3.6,5.8
		c0.8,1.3,2.9,3.6,7,3.6l0,0c4.6,0,10.7-2.9,14-6.7c2.7-3.1,3-6,2.8-7.9c-0.8-6.5-12.6-25-20-32.7c-0.1-0.1-0.1-0.2-0.2-0.3
		c-0.6-0.9-1.9-2.8-4.3-2.8c-0.9,0-1.8,0.3-2.7,0.8c-5.6,3.2-9.2,5.3-14.7,8.7C108.3,208.8,107.7,209.7,107.5,210.7z"></path>
	<path class="st0" d="M177.5,214.9c-0.5,0-1,0-1.4,0l-1.4-0.4c-0.7-0.2-1.4-0.3-2-0.3c-1.3,0-2,0.6-2.4,1c-0.6,0.8-0.8,1.9-0.5,3.4
		l3.1,21c0.1,0.6,0.6,1,1.2,1c0,0,4-0.1,4-0.1c0.1,0,14.7-0.5,30.4-1.1c0,3.7-0.1,7.3-0.1,10.7c-1.9,0.7-3.9,1.5-5.8,2.3
		c-16.5,6.9-27.1,19.9-28.6,34.9c-1.1,10.9,3.3,21.1,11.3,26.4c5.1,3.4,10.9,5.1,17.3,5.1c13.3,0,25.2-7.6,28.6-14.7
		c1.3-2.8,3.2-9,3.9-30.5c0.8-0.1,1.7-0.2,2.5-0.3c1.5-0.2,3-0.3,4.5-0.3c7.8,0,14.5,2.6,18.5,7c2.1,2.4,3.2,5.2,3,7.5
		c-0.7,5.4-13.2,12.4-22,15.3c-0.2,0.1-0.5,0.1-0.7,0.2c-2.1,0.6-3,1.3-3.8,5.4c-1,5.5,3.4,9.8,13.7,18.2l1.2,1
		c0.2,0.2,0.5,0.3,0.8,0.3h1.6c10.7,0,26.1-11.5,33.7-25.1c6.5-11.6,6.6-23.5,0.5-33.3c-10.5-16.9-26.9-25.8-47.5-25.8
		c-1.9,0-3.8,0.1-5.7,0.2c0-1.9,0-3.8-0.1-5.8c13.9-0.7,15-1.1,15.9-1.4c6.7-2.2,5.6-11.1,5.2-14.8c-0.5-4.3-1.5-8.3-1.5-8.5
		l-0.9-3.8c-0.1-0.6-0.6-0.9-1.2-0.9c0,0-0.1,0-0.1,0l-3.9,0.4c-1.1,0.1-6.5,0.7-14.1,1.4c-0.3-9.3-0.6-15.5-0.6-15.6l-0.2-3.6
		c0-0.6-0.5-1.1-1-1.2l-16.4-2.6c-1.3-0.9-2.7-1.4-4.1-1.4c-1.3,0-2.4,0.4-3.1,1.2c-0.6,0.7-0.9,1.6-0.8,2.6l0.3,2.7
		c0,0.8,0,9-0.1,20.2C193.5,214.2,182.7,214.9,177.5,214.9z M199.1,290.4c0.3-2.1,2.8-5.6,8.8-9c-0.2,5.6-0.3,6.7-0.4,6.8
		c-0.4,2.1-2.4,5-4.7,5c-0.9,0-1.9-0.4-3-1.2C199.1,291.6,198.9,291.2,199.1,290.4z"></path>
	<path class="st0" d="M285,203.5c-0.2-0.2-0.6-0.4-1.1-0.4c-0.9,0-1.9,0.6-3.3,1.4c-0.4,0.2-0.8,0.5-1,0.6
		c-4.6,1.8-7.9,4.2-11.2,6.5c-0.5,0.3-0.9,0.7-1.4,1c-1,0.7-1.6,1.8-1.9,3.2c-0.4,2.8,0.9,6.3,2.3,8.3c1.8,2.5,7.6,11.7,11.3,17.9
		c0.7,1.2,2.2,3,3.5,4.6c0.9,1.1,1.7,2.1,1.9,2.5c0.1,0.1,0.1,0.2,0.2,0.3c0.4,0.7,0.8,1.1,1.9,1.1c0.2,0,0.4,0,0.7,0
		c0.4,0,1,0,1.9,0c4.6,0,10.7-2.9,14-6.7c1-1.1,1.7-1.6,2.3-1.9c0.8-0.5,1.7-1.1,1.5-2.7C305.8,232.5,292.2,210.2,285,203.5z"></path>
	<path class="st0" d="M501.5,253.4c-0.1-4.6-0.2-8.5-6.6-8.5c-8.3,0-48.4,0-78,0.2c-8.8,0.1-18.9,0.1-30.1,0.1
		c-11.3,0-20.9,0-26.2,0c-2,0-3.3,0-3.9,0c-2.4,0-2.6,1.4-3.6,7.5c-0.1,0.7-0.2,1.4-0.4,2.3c-1,6.2,0.6,16,7.3,18.3
		c1.4,0.5,3.5,1.2,52.4,1.2h0c26.8,0,76.6-0.3,80.4-0.9c6.2-1,9.4-9.2,8.8-16.2C501.6,255.8,501.6,254.5,501.5,253.4z"></path>
	<path class="st1" d="M122.9,272.4c-13.3-21.4-35.3-24.3-57.9-19.2c-0.1-7-0.3-14.2-0.5-21c12.9-0.9,23.6-1.8,25-2.3
		c3.6-1.2,0-18.2,0-18.2s-11.5,1.6-25.4,3.2C63.7,201,63.4,191,63.4,191l-14-2.4c0,0,0.3,12.1,0.7,27.8c-14.3,1.4-28.3,2.4-33.4,1.3
		l-0.6,17.6c0,0,16.8-1,34.4-2.2c0.2,8.2,0.3,16.6,0.4,24.2c-2.5,0.9-5,1.9-7.5,2.9c-29.1,12.1-30.4,38.9-15.8,48.6
		s36.4,1.2,37.6-7.3c0.4-2.8,0.3-16,0.1-32.3c3.3-0.7,6.9-1.2,10.9-1.7c21.9-2.4,33.4,10.9,32.2,20.6c-1.2,9.7-11.5,17-18.8,19.4
		c-7.3,2.4-6.1,4.9,7.3,15.8C110.2,323.4,136.9,294.8,122.9,272.4z M50.7,287c-1.2,6.1-6.7,15.8-15.2,9.7c-6.4-4.5-3.6-16,15.5-23.4
		C51.1,280.5,51,285.7,50.7,287z"></path>
	<path class="st1" d="M145.4,235.4c-0.6-4.9-12.1-25.5-19.4-28.5c-2.8-1.2-14,4.9-10.3,9.7c2.6,3.5,13.4,21.2,16.4,26.1
		C134,245.7,146,240.2,145.4,235.4z"></path>
	<path class="st1" d="M247.2,306.3c-7.3,2.4-6.1,4.9,7.3,15.8c13.4,0,43.3-27.3,29.4-49.7c-12.6-20.3-32.9-25.4-54-22.2
		c0-5.9-0.1-11.9-0.2-17.5c10.5-0.5,18.7-1,19.9-1.4c3.6-1.2-0.1-16.6-0.1-16.6s-8.7,0.9-20.2,2c-0.4-12.7-0.7-21.6-0.7-21.6
		l-14-2.4c0,0,0,10.9-0.1,25.4c-16,1.4-32.7,2.7-38.7,2.5l2.3,14.1c0,0,18.2-0.6,36.3-1.3c-0.1,6.9-0.1,14-0.2,20.7
		c-3.1,1-6.2,2.2-9.2,3.4c-29.1,12.1-30.9,41.6-16.3,51.3c14.6,9.7,34,0.5,37.6-7.3c2.1-4.5,3.1-17.5,3.5-33c2.4-0.4,4.8-0.7,7.5-1
		c21.9-2.4,33.4,10.9,32.2,20.6C268,297.9,254.4,303.9,247.2,306.3z M213,289.3c-1.2,6.1-8.1,13.4-16.6,7.3
		c-6.6-4.7-3.4-16.7,17.3-24.1C213.5,281.4,213.3,287.9,213,289.3z"></path>
	<path class="st1" d="M300,236.5c-0.6-4.9-10.4-22.6-17.7-25.6c-2.8-1.2-14,4.9-10.3,9.7c2.6,3.5,11.6,18.3,14.6,23.2
		C288.5,246.9,300.6,241.4,300,236.5z"></path>
	<path class="st1" d="M488.9,250.3c-10.6,0-119.5,0.8-127.1,0.8c-5.3,0-4.5,15.1,0,16.6c4.5,1.5,125.6,0.8,130.1,0
		C496.4,266.9,499.5,250.3,488.9,250.3z"></path>
</g>
</svg>
