<!--?xml version="1.0" encoding="utf-8"?-->
<!-- Generator: Adobe Illustrator 22.1.0, SVG Export Plug-In . SVG Version: 6.00 Build 0)  -->
<svg version="1.1" id="_x35_" xmlns="http://www.w3.org/2000/svg" xmlns:xlink="http://www.w3.org/1999/xlink" x="0px" y="0px" viewBox="0 0 512 512" style="width: 512px; height: 512px;" xml:space="preserve">
<style type="text/css">
	.st0{fill:#040000;}
	.st1{fill:#FFFFFF;}
</style>
<g>
	<path class="st0" d="M451.6,222.3c0.1-2.4,0.3-5.9-0.4-9.2c-1.1-5.7-4.1-7.9-6.5-8.7l0,0c-0.2-0.3-0.6-0.4-0.9-0.4h-1.6
		c-2.1,0-4.9,1.9-5,1.9c-1.3,1-2.4,2.4-3.4,4.1c-1.6,3-2.1,5.9-2.4,9c-0.8,6.8-1.4,13.6-1.7,18.8c-0.2,3.3-0.4,6.7-0.6,10.1
		c-0.3,0.2-0.6,0.4-1,0.6c-1.6,1-3.4,2-5.1,3.1c-1,0.6-2.1,1.3-3.3,2.1c0.5-1.7,1-3.5,1.3-5.4c0.6-3.5,0.9-8.2-1.7-11.2
		c-1.4-1.7-3.3-2.6-5.6-2.6c-0.6,0-1.3,0.1-1.9,0.2c-3.5,0.8-6.6,3.4-9.2,7.8c-1.6,2.8-2.6,5.6-3.6,8.4l-0.2,0.7
		c-2.1,6.2-4.8,13.8-3.6,21.1c0.9,5.6,4.8,9.8,9.9,10.7c0.7,0.1,1.4,0.2,2,0.2c3.3,0,6.1-1.3,8.2-2.5c4.3-2.4,8.5-5,12.6-7.6
		l0.3-0.2c0,6.9,0.1,15.3,1,23.7c0.4,3.9,1.1,8.4,3.1,12.7c0.7,1.5,2.8,5.9,7.2,6.3c0.2,0,0.4,0,0.6,0c2,0,5.5-0.9,7.4-6.8
		c1.4-4.3,1.4-8.5,1.4-12.6c0-0.5,0-0.9,0-1.4c0.1-5.7,0.2-10.4,0.3-14.7c0.1-4.9,0.3-10.3,0.5-16.4c0-1.1,0.1-2.2,0.1-3.3
		c2.4-1.2,4.5-2.2,6.6-3.1c4-1.7,8.2-3.4,12.4-4.1c0,1.8-0.3,3.7-0.6,5.7c-0.6,4-1.6,8-2.6,12l0,0.1c-0.6,2.4-1.2,4.9-1.7,7.3
		c-1.4,6.8-2.2,14.6,3,21.7c4.2,5.7,11.2,9.2,18.2,9.2c0.2,0,0.3,0,0.5,0c3.7-0.1,7.3-1.2,10.2-3.3c1.5-1.1,6.4-5,5.6-10.3
		c-0.4-2.8-2.7-5.6-7-5.6c-1.3,0-2.6,0.2-3.6,0.4c-0.3,0.1-0.6,0.1-0.7,0.1c-0.4,0-0.8,0.1-1.2,0.1c-1.6,0-3.1-0.3-4.2-0.9
		c-0.8-0.4-1.7-1.2-1.7-2c0-1.5,0.5-3.5,1.1-5.3c0.1-0.5,0.3-1,0.4-1.5c0.3-1,0.5-2,0.8-3l0-0.1c1.5-5.4,3-10.9,3.9-16.6
		c1.1-6.9,1.7-15.7-3.3-22.5c-3.5-4.7-8.6-7.1-15.3-7.1c-2.3,0-4.8,0.3-7.4,0.9c-4,0.9-8.1,2.2-12.6,4c0.2-4.4,0.4-9,0.6-13.5
		L451.6,222.3z"></path>
	<path class="st0" d="M326.5,302c0.2-0.4,0.3-0.8,0.5-1.1c3.9-9.2,6.4-17.7,7.7-25.9c2.1-13.1-0.4-23.1-7.5-29.9
		c-7-6.7-16.2-8.3-25.3-8.8c0.1-2.1,0.2-4,0.2-5.7l0-0.1c0-3.2,0.1-8.1-3.2-11.6c-2.2-2.3-4.5-2.8-6-2.8c-3.6,0-6.6,2.5-9,7.4
		c-1.3,2.7-2.2,5.7-2.7,7.5c-0.3,1.4-0.6,2.8-1,4.5c-0.1,0.3-0.1,0.6-0.2,0.9c-2.9,0.2-5.5,0.5-8,0.9c-3,0.5-6.4,1.1-9.5,2.7
		c-2.9,1.4-6.1,4.3-6.3,8.1c-0.1,1.5,0.3,4.4,3.6,6.6c3.3,2.1,7.2,2.4,10.4,2.7l0.4,0c2.1,0.2,4.2,0.2,6.3,0.3
		c-1,8.3-1.8,17.1-2.7,27.4c-0.1,0.7-0.1,1.5-0.2,2.2c-0.4,4-0.7,8.1-0.1,12.3c0.3,1.8,1.1,7.1,5.7,8.9c0.8,0.3,1.7,0.5,2.5,0.5
		c4.3,0,6.9-3.8,7.8-5c2.7-4,4.1-8.7,5.2-13.1c1.2-4.9,1.9-9.9,2.5-14.7l0-0.2c0.7-4.9,1.3-10.1,2-16.2l0.1-0.8
		c1.4,0.1,2.8,0.2,4.2,0.4c1.6,0.2,6.4,0.8,7.7,3c1.9,3,0.9,8.9,0.1,13.2l-0.1,0.8c-0.5,2.6-1,5.4-1.6,8c-0.4,1.9-0.9,4.2-1.3,6.3
		c-0.9,4.8-1.6,9.2-1.1,13.9c0.5,4.7,2.8,9.7,7.7,9.7c1.8,0,3.5-0.7,5-2.2C323.6,309.1,325.2,305.2,326.5,302z"></path>
	<path class="st0" d="M344.7,251.7c2.8,6.5,6,14.3,8.2,22.7c0.1,0.5,0.2,0.9,0.4,1.4c0.7,3.1,1.9,7.8,5.8,10.4
		c1.5,1,3.1,1.5,4.8,1.5c5.3,0,8.5-5,9.6-9.3c2.2-8.6-0.7-18-3.8-26.1c-1.7-4.4-3.7-8.6-6.1-12.4l-0.2-0.4c-2-3.3-4.5-7.5-8.5-9.8
		c-1.5-0.9-3.3-1.3-5-1.3c-5.2,0-9.3,4-9.6,9.2c-0.2,4.3,1.6,8.3,3.3,11.9C344,250.3,344.4,251.1,344.7,251.7z"></path>
	<path class="st0" d="M129.9,241.9c3.3-0.9,7.1-3.9,8-7.8c0.8-3.6-0.6-6.9-1.6-9.1c0,0,0-0.1,0-0.1c-1.1-2.5-2.3-4.9-3.7-7.1
		c-3.9-6.3-8.1-9.7-13-10.4c-0.4-0.1-0.8-0.1-1.3-0.1c-4.3,0-8.1,3-9.2,7.2c-1.1,4.2,0.7,8,1.8,10.3c2.3,4.9,4.7,9.7,8.3,13.4
		c2.5,2.6,5.4,4,8.3,4C128.3,242.2,129.1,242.1,129.9,241.9z"></path>
	<path class="st0" d="M92,292c-0.6,1-1.2,1.9-1.8,2.9l-0.3,0.4c-0.8,1.3-1.7,2.6-2.5,4l-0.2,0.4c-0.9,1.6-2.2,3.8-2.3,6.5
		c-0.1,2.5,0.9,4.1,1.8,5c0.9,0.9,2.4,2,4.9,2c2.5,0,5.1-1.1,6.5-1.8c3.2-1.6,6.4-3.8,9.4-6.8c6-5.8,10.3-12.9,12.1-20
		c2.7-10.7-1.1-21.2-10.2-28.2c-6.3-4.8-14.4-7.7-24.2-8.5c0.1-2.7,0-5.5-0.1-8.2c1.8-0.3,3.5-0.6,5-1c4.1-0.9,8.3-2.2,11.5-5.3
		c3.9-3.8,3.3-8.2,1.2-10.7c-2-2.3-5-3-6.4-3.3c-3.7-0.8-7.5-0.9-11.4-1c-0.3,0-0.6,0-0.9,0c-0.4,0-0.8,0-1.2,0
		c-0.1-0.4-0.1-0.7-0.2-1c-0.9-4.7-2.2-8.6-3.8-12.1c-2.9-6.1-6.3-9.1-10.3-9.1c-1.4,0-2.8,0.4-4,1.2c-5.1,3.3-4.8,10.4-4.7,14.3
		l0,0.2c0.1,2.5,0.4,5,0.7,7.2l-1.8,0.1c-6,0.2-12.1,0.4-18.2,0.6c-0.8,0-1.7,0.1-2.5,0.1l-0.3,0c-6,0.2-12.3,0.5-18.3,2
		c-1.9,0.5-6.4,2-8.4,5.7c-1,2-1.2,4.3-0.3,6.4c1.7,4.3,6.3,5.8,7.9,6.3c3.4,1.1,6.7,1.3,9.9,1.5c3.1,0.2,6.4,0.3,10.4,0.4
		c2.2,0,4.5,0.1,6.7,0.1c5.7,0,11.4-0.1,16.9-0.4c0,1.8,0,3.6-0.1,5.3c0,0.7-0.1,1.4-0.1,2.1c-0.6,0.1-1.3,0.3-1.9,0.4
		c-9,1.9-16.3,4.6-22.4,8.3c-6.4,3.8-11.4,9.8-14.6,17.3c-2.3,5.5-4.5,13.8-1.8,22c2.7,8.3,10.3,14.2,19.3,15
		c1.2,0.1,2.3,0.1,3.4,0.1c5.8,0,11.1-1.2,15.6-3.7c6.9-3.8,12.6-10.3,16.8-19.4c1.8-3.8,3.3-7.9,4.5-12.6c0.5-1.9,1-3.9,1.4-5.9
		c5.6,0.3,9.8,1.4,12.9,3.6c1.7,1.2,2.6,2.3,2.7,3.5c0.3,2.4-1.2,5.5-2.7,8.1C94.6,287.9,93.4,289.9,92,292z M47.1,288.7
		c-0.9,0.2-2,0.3-2.9,0.3c-0.1,0-0.2,0-0.2,0c0-0.8,0.2-1.8,0.5-2.9c0.8-2.8,2.2-5.2,3.8-6.7c1.8-1.7,4.7-3,7.3-4
		c0.8-0.3,1.6-0.6,2.4-0.9c-1.5,4.4-3.3,7.9-5.6,10.6C50.6,287.2,48.9,288.4,47.1,288.7z"></path>
	<path class="st0" d="M160.8,269.2c5.5-0.2,10.9-0.7,16.2-1.2c3.7-0.4,7.6-0.7,11.3-1c3-0.2,6.6-0.4,10.1-0.4c2.2,0,4.2,0.1,6.1,0.2
		c3.2,0.3,7.8,0.8,11.5,3c2,1.2,4.3,3,4.2,5.4c-0.2,2.2-1.4,4.8-3.7,7.9c-2.4,3.1-5.4,5.7-8.5,8.4l-0.9,0.8
		c-2.8,2.4-7.4,7.3-6.3,12.3c0.3,1.6,1.6,4.5,5.8,5.7c1.2,0.4,2.5,0.5,3.8,0.5c4.7,0,8.9-2.4,11.7-4.1c4.2-2.7,8-5.9,11.2-9.6
		c1.9-2.1,3.5-4.4,4.9-6.8c4.4-7.7,5.7-15.9,3.5-23.2c-3.5-11.8-14.9-18.6-24.3-21.1c-5.1-1.3-10.7-2-17.2-2
		c-5.8,0-11.5,0.5-17.4,1.1c-5.2,0.5-10.3,1.1-15,1.7c-0.7,0.1-1.5,0.2-2.3,0.2c-3.1,0.3-6.4,0.7-9.6,1.8c-6.1,2.2-9.2,6.9-8,12
		c1.5,6.1,7.6,8.3,12.5,8.3C160.5,269.2,160.6,269.2,160.8,269.2z"></path>
	<path class="st1" d="M441.5,208.1c0-0.1-1.8,0.7-2,0.9c-0.9,0.7-1.5,1.6-2.1,2.6c-1.2,2.3-1.6,4.8-1.9,7.3
		c-0.8,6.1-1.3,12.3-1.7,18.5c-0.3,3.7-0.5,7.4-0.7,11.1c0,0.4,0.1,0.9-0.1,1.3c-0.2,0.5-0.5,0.6-1.1,0.9c-0.7,0.4-1.4,0.8-2.1,1.3
		c-1.7,1-3.4,2-5.1,3.1c-3.1,1.9-6.1,3.8-9.1,5.8c-1.2,0.8-2.6,2-3.9,2.5c-0.4,0.2-0.4,0.6-0.7,0c-0.3-0.8,0.6-2.9,0.8-3.7
		c0.4-1.5,0.8-3,1.3-4.4c0.9-2.8,1.8-5.6,2.3-8.5c0.5-2.5,1.1-9-3.3-8c-2.7,0.6-4.7,3.4-6.1,5.6c-1.4,2.4-2.3,5.1-3.2,7.7
		c-2,5.8-4.6,13-3.5,19.2c0.5,3.2,2.6,6.1,5.9,6.7c2.6,0.4,4.9-0.6,7.1-1.8c6.9-3.8,13.4-8.3,20.1-12.3c-0.2,10.6-0.3,21.4,0.9,32
		c0.4,3.8,1,7.7,2.7,11.1c0.6,1.2,1.7,3.4,3.3,3.6c1.6,0.1,2.5-2.1,2.9-3.4c1.3-4.1,1.2-8.4,1.2-12.6c0.1-4.9,0.1-9.9,0.3-14.8
		c0.1-5.5,0.3-11,0.5-16.4c0-1.3,0.1-2.7,0.1-4c0-0.5-0.2-1.8,0.1-2.2c0.2-0.4,1.4-0.7,1.8-1c2.5-1.3,5-2.5,7.6-3.6
		c4.9-2.1,10.1-4.1,15.4-4.7c0.7-0.1,2-0.3,2.7,0.2c0.7,0.5,0.8,1.8,0.9,2.5c0.4,2.9,0,6-0.5,8.9c-1.1,6.6-2.9,13.1-4.3,19.6
		c-1.3,6.2-1.8,12.4,2.2,17.8c3.4,4.5,9,7.3,14.7,7.2c2.7-0.1,5.3-0.9,7.5-2.4c1.7-1.2,3.9-3.4,3.6-5.7c-0.4-2.5-4.4-1-6-0.9
		c-2.7,0.2-5.6-0.1-8-1.4c-2.4-1.2-4.3-3.5-4.3-6.2c0-2.7,1-5.6,1.6-8.2c1.7-6.4,3.6-12.7,4.6-19.2c1-6.2,1.5-13.5-2.4-18.8
		c-4.2-5.8-11.4-5.8-17.8-4.4c-6.6,1.4-12.8,4-18.9,6.9c0.3-7.1,0.7-14.2,1-21.3C446.2,218.5,447.1,208.5,441.5,208.1z"></path>
	<path class="st1" d="M313.2,290.8c-0.8,4.1-1.5,8.3-1.1,12.5c0.2,2.3,1.5,7.3,4.6,4.5c2.5-2.4,3.9-6.3,5.2-9.4
		c3.3-7.9,6-16.3,7.4-24.8c1.4-9,0.9-18.9-6.1-25.6c-7.2-6.9-17.7-7.4-27.1-7.7c0.3-3.5,0.5-6.9,0.5-10.4c0-2.7,0.1-6.2-1.9-8.4
		c-4.9-5.2-8.7,6.8-9.4,9.8c-0.3,1.4-0.6,2.9-0.9,4.3c-0.2,0.8-0.3,1.7-0.5,2.5c-0.1,0.4-0.1,1.1-0.3,1.5c0,0.2-0.1,0.4-0.1,0.6
		c-0.4,0-0.8,0-1.2,0.1c-3.4,0.2-6.7,0.5-10.1,1c-2.7,0.5-5.6,1-8.1,2.3c-2.4,1.2-5.4,4.1-2.2,6.2c2.4,1.5,5.8,1.7,8.5,1.9
		c3.8,0.3,7.6,0.3,11.3,0.5c-1.4,10.8-2.4,21.6-3.3,32.5c-0.4,4.4-1,9.1-0.3,13.5c0.3,1.7,0.8,4.4,2.6,5.1c1.9,0.7,3.6-1.4,4.6-2.8
		c2.3-3.4,3.5-7.6,4.5-11.5c1.1-4.8,1.8-9.6,2.5-14.5c0.7-5.3,1.4-10.7,1.9-16c0.1-1.3,0.3-2.6,0.4-3.9c0-0.3,0-0.6,0.1-0.9
		c0.3-1-0.1-0.4,0.6-0.6c0.6-0.1,1.3,0.1,1.9,0.2c2.2,0.2,4.5,0.3,6.7,0.6c4,0.5,8.9,1.5,11.2,5.2c3.1,4.9,1.6,12.1,0.7,17.4
		C315.2,281.2,314.1,286,313.2,290.8z"></path>
	<path class="st1" d="M348.5,249.2c3.3,7.6,6.3,15.3,8.5,23.4c0.8,3,1.4,7.2,4.2,9.1c3.7,2.5,6.3-1.9,7-5c1.9-7.5-0.9-16.2-3.6-23.1
		c-1.6-4-3.5-8-5.7-11.7c-1.8-2.9-3.9-6.7-7-8.4c-3.3-1.9-7.1,0.2-7.3,3.9C344.3,241.3,347,245.7,348.5,249.2z"></path>
	<path class="st1" d="M128,236.6c1.9-0.5,4-2.3,4.5-4.2c0.5-2.1-0.5-4.3-1.3-6.2c-1-2.2-2.1-4.4-3.3-6.5c-2.1-3.4-5.3-7.5-9.5-8.1
		c-2.4-0.3-4.5,1.2-5.2,3.5c-0.6,2.4,0.5,4.9,1.5,7c1.9,4.1,4.2,8.8,7.4,12.1C123.6,235.8,125.7,237.2,128,236.6z"></path>
	<path class="st1" d="M93.6,296.8c-0.9,1.4-1.8,2.8-2.6,4.3c-0.8,1.4-1.9,3.1-1.9,4.7c-0.1,3.4,4.7,1.3,6.2,0.6
		c3-1.5,5.8-3.6,8.2-5.9c4.9-4.8,9.1-11.1,10.8-17.7c2.3-9-1.2-17.6-8.5-23.2c-7.4-5.7-17.1-7.6-26.2-7.7c0.2-4.5,0.3-8.9,0.1-13.4
		c0-0.8-0.5-2.6-0.2-3.3c0.2-0.6,2.1-0.6,2.9-0.7c2-0.3,4.1-0.7,6.1-1.1c3.2-0.7,6.8-1.7,9.2-4.1c1.1-1.1,2.1-2.7,0.9-4.1
		c-0.9-1-2.5-1.5-3.8-1.8c-3.4-0.8-6.9-0.8-10.3-0.8c-0.9,0-1.8,0-2.7,0c-0.6,0-3.1,0.4-3.6,0.1c-0.4-0.3-0.3-2.2-0.4-2.7
		c-0.1-0.8-0.3-1.5-0.4-2.3c-0.7-3.7-1.8-7.5-3.4-10.9c-1.1-2.2-4.1-8-7.3-5.9c-2.8,1.8-2.6,7.4-2.5,10.2c0.1,4,0.9,8,1.4,12
		c-8.5,0.3-16.9,0.5-25.4,0.8c-6.6,0.3-13.6,0.4-20.1,2c-2.4,0.6-6.6,2.5-5.4,5.7c0.7,1.9,3,2.9,4.8,3.4c2.8,0.9,5.8,1.1,8.7,1.3
		c3.4,0.2,6.8,0.3,10.2,0.4c9.4,0.2,18.9,0,28.3-0.6c0.2,3.5,0.2,7.1,0.1,10.6c0,1-0.1,2-0.1,3c0,0.7,0.1,1.8-0.2,2.5
		c-0.3,0.8-0.1,0.6-1,0.8c-0.5,0.1-1,0.2-1.5,0.3c-1,0.2-2,0.4-3,0.6c-7.2,1.6-14.5,3.9-20.9,7.7c-5.8,3.5-10,8.8-12.6,15
		c-2.4,5.8-3.6,12.6-1.7,18.6c2.1,6.6,8.2,11,15.1,11.6c5.6,0.5,11.4-0.3,16.3-3c6.8-3.7,11.5-10.3,14.7-17.2
		c1.8-3.8,3.1-7.8,4.2-11.8c0.5-2,1-4,1.4-6c0.2-0.9,0.2-2.2,0.5-2.9c0.4-0.7-0.3-0.3,0.7-0.6c0.6-0.1,1.4,0,2,0
		c5.9,0.1,12.2,1.1,17.1,4.5c2.4,1.7,4.5,4,4.8,7c0.4,3.8-1.5,7.7-3.3,11C97.6,290.8,95.6,293.8,93.6,296.8z M55.5,287.5
		c-2.1,2.6-4.8,4.8-8.2,5.3c-2.3,0.4-5.6,0.8-7.7-0.6c-0.8-0.4-1-1.9-1.1-2.5c-0.2-1.9,0.2-3.8,0.7-5.6c0.9-3.2,2.6-6.5,5-8.9
		c2.4-2.3,5.8-3.8,8.8-5c3.6-1.4,7.3-2.5,11.1-3.3C62.7,274.1,60.3,281.8,55.5,287.5z"></path>
	<path class="st1" d="M204.3,261.4c4.6,0.4,9.4,1.2,13.5,3.6c3.7,2.1,6.9,5.4,6.6,9.9c-0.3,3.9-2.4,7.5-4.7,10.5
		c-2.9,3.8-6.5,6.8-10.1,9.9c-2.4,2.1-8,8-2.3,9.7c4,1.2,8.2-0.9,11.5-3c3.8-2.4,7.2-5.4,10.1-8.7c1.6-1.9,3.1-3.9,4.4-6.1
		c3.4-5.8,5.1-12.7,3.1-19.3c-2.8-9.3-11.9-15.4-20.9-17.8c-10.6-2.8-22-1.8-32.8-0.8c-5,0.5-9.9,1.1-14.9,1.7
		c-3.5,0.4-7.4,0.6-10.8,1.8c-2.6,0.9-5.7,3.1-4.9,6.3c0.8,3.5,5,4.7,8.1,4.6c9.1-0.3,18.3-1.6,27.4-2.2
		C193,261.2,198.7,260.9,204.3,261.4z"></path>
</g>
</svg>
