<!--?xml version="1.0" encoding="utf-8"?-->
<!-- Generator: Adobe Illustrator 22.1.0, SVG Export Plug-In . SVG Version: 6.00 Build 0)  -->
<svg version="1.1" id="_x30_" xmlns="http://www.w3.org/2000/svg" xmlns:xlink="http://www.w3.org/1999/xlink" x="0px" y="0px" viewBox="0 0 512 512" style="enable-background:new 0 0 512 512;" xml:space="preserve">
<style type="text/css">
	.st0{fill:#040000;}
</style>
<g>
	<path class="st0" d="M445.9,207.8c0-0.1-1.9,0.8-2.1,0.9c-0.9,0.7-1.6,1.6-2.1,2.6c-1.2,2.3-1.6,4.9-1.9,7.5
		c-0.8,6.3-1.3,12.6-1.7,18.9c-0.3,3.8-0.5,7.5-0.7,11.3c0,0.4,0.1,0.9-0.1,1.3c-0.2,0.5-0.5,0.6-1.1,1c-0.7,0.4-1.5,0.9-2.2,1.3
		c-1.7,1-3.5,2.1-5.2,3.1c-3.1,1.9-6.2,3.9-9.3,5.9c-1.2,0.8-2.6,2.1-4,2.6c-0.4,0.2-0.5,0.6-0.7,0c-0.3-0.9,0.6-3,0.9-3.8
		c0.4-1.5,0.8-3,1.3-4.5c0.9-2.9,1.8-5.7,2.4-8.6c0.5-2.5,1.2-9.1-3.4-8.1c-2.7,0.6-4.8,3.4-6.2,5.7c-1.4,2.4-2.4,5.2-3.3,7.8
		c-2.1,5.9-4.7,13.2-3.6,19.6c0.5,3.3,2.6,6.2,6.1,6.8c2.6,0.4,5-0.6,7.3-1.8c7-3.9,13.7-8.5,20.6-12.6c-0.2,10.8-0.3,21.8,0.9,32.6
		c0.4,3.9,1,7.8,2.7,11.4c0.6,1.2,1.7,3.5,3.3,3.6c1.7,0.1,2.6-2.2,3-3.5c1.3-4.1,1.2-8.6,1.2-12.9c0.1-5,0.1-10.1,0.3-15.1
		c0.1-5.6,0.3-11.2,0.5-16.8c0-1.4,0.1-2.7,0.1-4.1c0-0.5-0.2-1.8,0.1-2.2c0.3-0.4,1.5-0.8,1.9-1c2.5-1.3,5.1-2.5,7.8-3.7
		c5-2.1,10.3-4.2,15.7-4.8c0.8-0.1,2.1-0.3,2.8,0.2c0.7,0.5,0.8,1.8,0.9,2.6c0.4,3,0,6.1-0.5,9c-1.1,6.8-3,13.3-4.4,20
		c-1.4,6.3-1.9,12.6,2.2,18.2c3.4,4.6,9.2,7.5,15,7.4c2.7-0.1,5.4-0.9,7.7-2.5c1.7-1.2,4-3.5,3.7-5.8c-0.4-2.5-4.5-1-6.1-0.9
		c-2.8,0.2-5.7-0.1-8.2-1.4c-2.4-1.3-4.3-3.5-4.4-6.3c0-2.8,1-5.7,1.7-8.3c1.7-6.5,3.6-13,4.7-19.6c1-6.3,1.5-13.8-2.5-19.2
		c-4.3-5.9-11.7-5.9-18.1-4.5c-6.7,1.5-13.1,4.1-19.2,7.1c0.3-7.2,0.7-14.5,1-21.7C450.7,218.4,451.6,208.2,445.9,207.8z" style="stroke: rgb(255, 255, 255); stroke-width: 2px;"></path>
	<path class="st0" d="M315,292.1c-0.8,4.2-1.5,8.5-1.1,12.7c0.2,2.4,1.6,7.5,4.7,4.6c2.6-2.4,4-6.4,5.3-9.6
		c3.4-8.1,6.2-16.6,7.5-25.3c1.5-9.2,0.9-19.3-6.2-26.1c-7.4-7.1-18.1-7.5-27.7-7.8c0.3-3.5,0.5-7.1,0.6-10.6c0-2.8,0.1-6.4-1.9-8.5
		c-5-5.3-8.8,6.9-9.5,10c-0.3,1.5-0.6,2.9-0.9,4.4c-0.2,0.8-0.3,1.7-0.5,2.5c-0.1,0.4-0.1,1.1-0.3,1.5c0,0.2-0.1,0.4-0.1,0.6
		c-0.4,0-0.8,0-1.2,0.1c-3.4,0.2-6.9,0.5-10.3,1c-2.8,0.5-5.7,1-8.3,2.3c-2.4,1.2-5.6,4.2-2.2,6.4c2.4,1.6,5.9,1.8,8.7,2
		c3.8,0.3,7.7,0.3,11.6,0.5c-1.4,11-2.5,22.1-3.3,33.1c-0.4,4.5-1,9.2-0.3,13.7c0.3,1.7,0.8,4.5,2.7,5.2c2,0.8,3.7-1.4,4.7-2.8
		c2.4-3.4,3.6-7.7,4.5-11.7c1.2-4.8,1.9-9.8,2.5-14.8c0.8-5.4,1.4-10.9,2-16.3c0.1-1.3,0.3-2.7,0.4-4c0-0.3,0-0.7,0.1-0.9
		c0.3-1-0.1-0.5,0.6-0.6c0.6-0.1,1.4,0.1,2,0.2c2.3,0.2,4.6,0.3,6.9,0.6c4.1,0.5,9.1,1.6,11.5,5.3c3.1,5,1.6,12.4,0.7,17.7
		C317,282.3,315.9,287.2,315,292.1z" style="stroke: rgb(255, 255, 255); stroke-width: 2px;"></path>
	<path class="st0" d="M351,249.7c3.3,7.8,6.4,15.6,8.6,23.8c0.8,3.1,1.4,7.3,4.3,9.3c3.7,2.5,6.4-2,7.2-5.1c2-7.6-0.9-16.5-3.7-23.6
		c-1.6-4.1-3.5-8.1-5.8-11.9c-1.8-3-4-6.8-7.2-8.6c-3.4-1.9-7.3,0.2-7.5,4C346.8,241.6,349.5,246.1,351,249.7z" style="stroke: rgb(255, 255, 255); stroke-width: 2px;"></path>
	<path class="st0" d="M126.1,236.8c1.9-0.5,4.1-2.3,4.6-4.3c0.5-2.1-0.5-4.4-1.4-6.3c-1-2.3-2.1-4.5-3.4-6.6
		c-2.1-3.4-5.4-7.7-9.7-8.3c-2.4-0.3-4.6,1.2-5.3,3.6c-0.6,2.4,0.5,5,1.5,7.1c2,4.2,4.3,9,7.6,12.3
		C121.6,236.1,123.8,237.5,126.1,236.8z" style="stroke: rgb(255, 255, 255); stroke-width: 2px;"></path>
	<path class="st0" d="M91,298.3c-0.9,1.4-1.8,2.9-2.7,4.4c-0.8,1.4-1.9,3.1-2,4.8c-0.1,3.4,4.8,1.4,6.3,0.6c3.1-1.5,5.9-3.7,8.3-6
		c5-4.9,9.3-11.3,11-18.1c2.3-9.2-1.2-17.9-8.7-23.6c-7.5-5.8-17.4-7.7-26.8-7.9c0.2-4.5,0.3-9.1,0.1-13.7c0-0.8-0.5-2.6-0.2-3.4
		c0.3-0.6,2.1-0.6,3-0.7c2.1-0.3,4.1-0.7,6.2-1.1c3.3-0.7,6.9-1.7,9.4-4.1c1.1-1.1,2.1-2.8,0.9-4.2c-0.9-1.1-2.6-1.5-3.9-1.8
		c-3.4-0.8-7-0.8-10.5-0.9c-0.9,0-1.8,0-2.7,0c-0.6,0-3.2,0.4-3.6,0.1c-0.4-0.3-0.4-2.3-0.4-2.8c-0.1-0.8-0.3-1.6-0.4-2.4
		c-0.7-3.8-1.8-7.6-3.5-11.1c-1.1-2.2-4.2-8.1-7.5-6c-2.9,1.9-2.6,7.5-2.5,10.5c0.1,4.1,1,8.2,1.5,12.3c-8.6,0.3-17.3,0.5-25.9,0.9
		c-6.8,0.3-13.9,0.4-20.5,2c-2.4,0.6-6.7,2.5-5.5,5.8c0.7,1.9,3.1,2.9,4.9,3.5c2.9,0.9,5.9,1.1,8.9,1.3c3.5,0.2,6.9,0.3,10.4,0.4
		c9.6,0.2,19.2,0,28.8-0.7c0.2,3.6,0.2,7.2,0.1,10.8c0,1-0.1,2-0.1,3.1c0,0.8,0.1,1.8-0.2,2.5c-0.3,0.8-0.1,0.6-1,0.8
		c-0.5,0.1-1,0.2-1.6,0.3c-1,0.2-2.1,0.4-3.1,0.6c-7.4,1.6-14.8,4-21.3,7.9c-5.9,3.6-10.2,9-12.8,15.3c-2.5,5.9-3.7,12.8-1.7,19
		c2.2,6.8,8.3,11.3,15.4,11.9c5.7,0.5,11.6-0.3,16.6-3.1c6.9-3.8,11.8-10.5,15-17.6c1.8-3.9,3.2-7.9,4.3-12c0.5-2,1-4,1.4-6.1
		c0.2-0.9,0.2-2.2,0.6-3c0.4-0.7-0.3-0.4,0.7-0.6c0.6-0.1,1.4,0,2,0c6,0.1,12.4,1.1,17.5,4.6c2.5,1.7,4.6,4.1,4.9,7.1
		c0.4,3.9-1.5,7.9-3.4,11.2C95.1,292.2,93,295.2,91,298.3z M52.1,288.8c-2.2,2.6-4.9,4.9-8.3,5.5c-2.4,0.4-5.7,0.9-7.8-0.6
		c-0.8-0.4-1-1.9-1.1-2.6c-0.2-1.9,0.2-3.9,0.7-5.7c1-3.3,2.7-6.7,5.1-9c2.5-2.4,5.9-3.8,9-5.1c3.7-1.5,7.5-2.6,11.4-3.4
		C59.4,275.1,57,282.9,52.1,288.8z" style="stroke: rgb(255, 255, 255); stroke-width: 2px;"></path>
	<path class="st0" d="M203.9,262.1c4.7,0.4,9.6,1.3,13.8,3.7c3.7,2.2,7,5.5,6.7,10.1c-0.3,3.9-2.5,7.7-4.8,10.7
		c-3,3.9-6.7,7-10.3,10.1c-2.5,2.1-8.2,8.2-2.3,9.9c4.1,1.2,8.4-1,11.7-3.1c3.8-2.5,7.4-5.5,10.3-8.9c1.7-1.9,3.2-4,4.4-6.2
		c3.4-6,5.2-13,3.1-19.7c-2.9-9.5-12.1-15.7-21.3-18.1c-10.9-2.8-22.5-1.8-33.5-0.8c-5.1,0.5-10.1,1.1-15.2,1.7
		c-3.6,0.4-7.6,0.6-11,1.9c-2.7,1-5.8,3.2-5,6.4c0.8,3.6,5.1,4.8,8.3,4.7c9.3-0.3,18.6-1.7,27.9-2.3
		C192.4,261.9,198.1,261.6,203.9,262.1z" style="stroke: rgb(255, 255, 255); stroke-width: 2px;"></path>
</g>
</svg>
