<!--?xml version="1.0" encoding="utf-8"?-->
<!-- Generator: Adobe Illustrator 22.1.0, SVG Export Plug-In . SVG Version: 6.00 Build 0)  -->
<svg version="1.1" id="_x37_" xmlns="http://www.w3.org/2000/svg" xmlns:xlink="http://www.w3.org/1999/xlink" x="0px" y="0px" viewBox="0 0 512 512" style="enable-background:new 0 0 512 512;" xml:space="preserve">
<style type="text/css">
	.st0{fill:#040000;}
	.st1{fill:#FFFFFF;}
</style>
<g>
	<path class="st0" d="M93.9,25.9c-3.9,0.7-4.8,2.9-5.6,5.1c-0.2,0.6-0.5,1.3-0.8,1.8V33c-2.8,5.8-7.2,35.6-10.3,59.6
		c-1.6,12.7-3.3,25.8-4.4,35.9c-1.9,17.8-1.6,18.7-1,20.5c1.8,5,8,7.6,18.3,7.6c1.8,0,4.6-0.1,7.2-0.6c7.7-1.5,11.4-5.4,12.1-6.2
		l1.3-1.5c0.1-0.2,0.2-0.4,0.3-0.6l0.2-1.9c4.1-40.8,10.4-103.2,11.2-107.2c0.5-2.6-0.1-5.3-1.8-7.4c-2.5-3.1-7-4.6-14-4.6
		c-1.2,0-2.8-0.2-4.7-0.4c-2.1-0.3-4.4-0.5-6.1-0.5C95.1,25.8,94.4,25.9,93.9,25.9z"></path>
	<path class="st0" d="M152.2,61.2c-5.1,0-20.8,0-20.8,10.3c0,3.8,3.4,73.1,5.5,78.9c1.2,3.2,4.7,7.1,14.7,7.1
		c3.4,0,11.8-0.5,16.2-5.4c1.9-2.2,2.8-4.9,2.5-7.8c-0.5-4.1-2.9-37.9-4.4-58.1V86c-0.7-8.7-1.1-15-1.2-16.4
		c-0.1-1.4-1.2-8.3-11.2-8.3L152.2,61.2z"></path>
	<path class="st0" d="M188.9,77.4c2.1,0,4.3-0.3,6.3-0.7c17.2-4.1,22.8-22.1,22.3-37.6C217,24,202.3,10.2,186.6,10.2
		c-1.2,0-2.4,0.1-3.6,0.2c-17.2,2.3-26.8,16-25.8,36.6C158,63.5,172.5,77.4,188.9,77.4z M187.4,41.1c0.3,0,0.5,0,0.7,0
		c0.2,0,0.3,0,0.4,0c0.2,0.4,0.4,1.2,0.7,2.5c0.3,2-0.5,4.2-1.4,5.6c-0.6-1.3-1-3-1-5C186.9,42.7,187.2,41.7,187.4,41.1z"></path>
	<path class="st0" d="M126.9,242.6c-6.1,0.8-7.8,7.8-8.2,10.1c-0.8,3.3-1.3,7.4-1.3,10.9c0,2.8,0.3,5.2,0.9,7.2
		c2,6.6,7.3,7.1,8.8,7.1c0.2,0,0.4,0,0.6,0c2.7-0.2,20.5-3.8,35.6-7c-2.3,17.8-4.1,27.8-4.7,29.9l-0.5,1.6c-0.1,0.2-0.1,0.4,0,0.6
		l0.4,1.6c1.5,6.2,7.8,10,16.4,10c3.1,0,10.7-0.6,14.1-5.5c1.2-1.7,2.3-3.5,6.5-44.9c37.3-8,38.9-8.9,40-9.6c4.9-2.7,6.7-9.7,4.9-20
		l-0.8-4.8c-0.1-0.5-0.5-0.9-1-0.9l-4.9-0.3c-0.9-0.1-1.8-0.1-2.9-0.1c-6.6,0-17.5,1-32.4,2.8c0.8-9.1,1.4-16.9,1.7-22.6
		c18.8-6,20.1-7.4,21.4-8.6c3.4-3.5,3.6-9,0.5-16.5c-0.1-0.3-0.3-0.7-0.5-1.2c-1.8-5-6.8-18.4-16-18.4c-1.1,0-2.1,0.2-3.2,0.5
		l-0.2,0.1c-2.4,0.9-8,4-15.2,8c-6.8,3.8-14.4,8-20.9,11.2c-29.3,14.3-30.9,15.9-31.8,16.7c-4.9,4.9-2.6,14.4-1.3,17.6
		c2.7,6.5,7.5,7.2,9.3,7.2c0.3,0,0.6,0,0.9,0c2.3-0.2,15-3.9,25.9-7.1c-0.4,4.8-1,10.9-1.7,17.5
		C149.1,238.5,132.9,241.3,126.9,242.6z"></path>
	<path class="st0" d="M309,323.8c0.6-1.3,1.7-4,4.9-38.1c0.3-3.4,3.1-32.9,2.8-36.3c-0.4-3.3-3-7.3-9.2-7.3c-7,0-19.2,1.1-22.6,8
		l-0.2,0.4c0,0,0,0.1-0.1,0.1l-0.1,0.4c-3,8.6-11.2,70.8-10.7,75.7c0.2,1.7,1.6,7.4,10.4,7.4C284.6,334.3,304.9,333.5,309,323.8z"></path>
	<path class="st0" d="M362.3,260.1c-1.6-1.6-3.6-1.8-5.4-1.8c-0.9,0-1.8,0.1-2.9,0.1c-1.2,0.1-2.6,0.2-4.1,0.2
		c-6.6,0-10.8,1.1-12.9,3.2l-1.6,1.6c-0.2,0.2-0.3,0.4-0.3,0.7l-0.2,2.2c-1.6,18.1,2.9,65.4,3.5,68.9c0.5,3.1,2.8,8.4,13.1,8.4
		c2,0,4.2-0.2,5.9-0.3c1.1-0.1,2.2-0.2,2.8-0.2c0.5,0,1,0.1,1.5,0.1c4.6,0,8-2,8.6-2.4l3.4-2.1c0.4-0.2,0.6-0.6,0.5-1.1l-0.6-4
		c-4.4-28.4-9-60.6-9-64.6C364.7,266.8,364.1,262.1,362.3,260.1z"></path>
	<path class="st0" d="M401.1,223.5c-2.9-1-5.9-1.5-8.9-1.5c-12.9,0-23.9,8.1-27.7,20.8c-2.8,9.2-1.4,19.5,4,27.5
		c4.4,6.6,10.6,10.6,17.6,11.2c0.9,0.1,1.8,0.1,2.7,0.1c12.1,0,22.3-7.9,27.8-21.5c3.3-8,3.3-16.3,0-23.4
		C413.5,230.4,408,225.7,401.1,223.5z M391.9,248.2c0.1,0,0.2,0,0.3,0c0.1,2.5-0.6,4.8-1.4,5.8c-0.1,0.1-0.2,0.3-0.5,0.3
		c-0.4-1-0.8-3.3,0.6-5.5C391,248.5,391.3,248.2,391.9,248.2z"></path>
	<path class="st0" d="M393.9,437c15.6-4,36.4-8.5,37.2-8.7l3.4-0.8c0.4-0.1,0.7-0.3,0.8-0.7l1.1-3.3c0,0,1.2-3.4,2.1-7
		c2.3-8,2.6-12.6,1.2-15.3c-1-1.8-2.7-3.1-4.7-3.6c-0.6-0.2-1.3-0.2-1.8-0.2c-1.2,0-4.1,0.9-9.5,2.5c-7.6,2.2-18.7,5.6-27.6,6.9
		c0.3-4.8,0.4-8.6,0.5-11.8c17.4-7.6,18.2-8.4,19.4-9.6c0.9-0.9,3.8-4.4,1.6-9.7c-2.3-5.6-14.5-19.6-24.3-19.6
		c-1.9,0-3.8,0.5-5.2,1.4c-5.9,2.9-18.7,11.7-31.1,20.4c-9.8,6.8-19.1,13.2-22.9,15.1c-1.9,1.1-2.8,3.5-2.4,7
		c0.6,5.3,6.1,10.6,10.8,14.1l2.8,2.1c0.2,0.1,0.4,0.2,0.6,0.2c0.1,0,0.3,0,0.4-0.1l3.2-1.4c0,0,6.4-2.6,15-6.2
		c0,1.7-0.1,3.8-0.2,5.9c-9.4,2-20,4.1-29.5,5.9h-0.1c-4.6,0.9-8.9,1.7-12.5,2.4c-4.6,0.8-7.7,4.2-8.2,9
		c-0.9,7.8,5.8,19.9,12.2,22.3c1.2,0.4,2.3,0.6,3.8,0.6c6.8,0,24-5.1,32.6-7.8c-0.3,4.5-0.6,8.6-0.8,12.5c-0.9,14.3-1.5,24.5-2,26.7
		c-1.2,4.5-0.1,9.9,1.2,11.5c1.2,1.5,3.8,4,8.7,4c6.9,0,15.7-6.1,18.5-12.8C389.9,484,392.5,454.6,393.9,437z"></path>
	<path class="st1" d="M93.9,36.1c-4.2,8.7-16.5,107.5-15.4,110.3s11.9,3.5,17.6,2.4c5.6-1.1,8-3.9,8-3.9s10.2-102.6,11.2-107.8
		C116.4,31.9,95,34,93.9,36.1z"></path>
	<path class="st1" d="M163.4,145.1c-0.7-5.9-5.2-70.8-5.6-75s-19.3,0-19.3,4.9c0,7.4,3.9,69,5.2,72.9S164,151,163.4,145.1z"></path>
	<path class="st1" d="M193.5,69.8c13.3-3.2,17.2-18.6,16.8-30.4C209.9,27.4,197,15.9,184,17.6c-14.7,2-20.4,14.1-19.6,29.1
		C165.1,61.7,180.2,72.9,193.5,69.8z M186.1,34c4.9-0.4,8.7,0,10.2,8.4c1.4,8.4-6.3,19.3-12.2,13.7C178.1,50.5,178.1,34.6,186.1,34z
		"></path>
	<path class="st1" d="M127.9,249.6c-2.8,0-5.6,21.3-0.7,21c2.1-0.2,22.4-4.3,44.4-8.9c-2.4,19.4-5,37.2-6.3,41.1
		c1.4,5.9,15.4,5.2,17.6,2.1c1.1-1.6,3.6-23.4,5.9-46.8c22-4.8,41.8-9.1,43.1-9.9c3.2-1.7,1.4-12.6,1.4-12.6
		c-7.6-0.4-24.5,1.4-42.9,3.9c1.4-15.3,2.5-29.1,2.8-36.2c12.2-3.9,22-7.3,23.2-8.4c3.2-3.2-6.3-22.8-13-20.7
		c-8,2.8-62.1,29.1-64.1,31.2c-2.1,2.1-0.4,13,3.2,12.6c1.6-0.2,17.6-4.7,34.4-9.7c-0.2,6.2-1.4,19.1-3,33.5
		C153.4,245,134.1,248.4,127.9,249.6z"></path>
	<path class="st1" d="M302.5,321c1.8-4.4,7.6-67.9,7.3-70.7c-0.3-2.8-17,1.8-19.2,6.3c-3.1,9.1-9.7,66.6-9.4,69.4
		C281.5,328.9,300.6,325.5,302.5,321z"></path>
	<path class="st1" d="M342.1,266.7c-1.6,17,2.8,63.1,3.5,67.2c0.6,4.1,12.2,1.6,15.4,1.8c3.1,0.3,5.6-1.3,5.6-1.3
		s-9.4-61.6-9.1-65.9C357.8,264.2,343,265.7,342.1,266.7z"></path>
	<path class="st1" d="M398.9,230.3c-10.7-3.5-23.6,1.6-27.6,14.7s3.8,28.4,15.4,29.6c9.4,1,18.2-4.8,23.3-17
		C414.9,245.4,409.6,233.7,398.9,230.3z M388.2,261.4c-5-1-7.6-9.7-3.5-16.3c4.1-6.6,13.9-4.4,14.4,1.8
		C399.9,253.2,397.3,262.6,388.2,261.4z"></path>
	<path class="st1" d="M381.1,486.1c1.4-3.3,4.1-30,6-54.8c16.3-4.3,42.4-10.1,42.4-10.1s4.8-14.3,3.5-14.6
		c-1.1-0.3-27.7,4.8-44.8,9.1c0.7-11.2,1.2-20.8,1-25.6c11.2-4.8,20.6-9,21.4-10c2.5-2.5-13.5-18.2-19.2-14.7
		c-12.2,6-50.2,29.6-52.7,32.4c-2.5,2.8,7.6,10.4,7.6,10.4s11.4-4.8,24.7-10.3c0.3,4.1,0.2,12.3-0.2,22.4
		c-15.3,3.6-35.2,7.1-47.8,9.6c-6.3,1,1.3,16,5.3,17.6c3.4,1.4,29.4-6.3,41.6-10.6c-1.3,22.9-3.3,47.6-4.6,52.1
		C363.3,497.2,378.7,492.2,381.1,486.1z"></path>
</g>
</svg>
