<!--?xml version="1.0" encoding="utf-8"?-->
<!-- Generator: Adobe Illustrator 22.1.0, SVG Export Plug-In . SVG Version: 6.00 Build 0)  -->
<svg version="1.1" id="_x37_" xmlns="http://www.w3.org/2000/svg" xmlns:xlink="http://www.w3.org/1999/xlink" x="0px" y="0px" viewBox="0 0 512 512" style="enable-background:new 0 0 512 512;" xml:space="preserve">
<style type="text/css">
	.st0{fill:#231815;}
	.st1{fill:#FFFFFF;}
</style>
<g>
	<path class="st0" d="M99.014,303.813c0-2.693-0.084-5.468-0.248-8.258c-4.161,1.738-8.774,2.654-13.589,2.654
		c-15.478,0-29.476-8.998-34.833-22.39c-4.73-11.824-4.742-24.429-0.033-34.583c2.434-5.249,6.006-9.705,10.564-13.241l-50.635,4.22
		v-39.961l79.167-4.439c-0.137-4.904-0.28-9.909-0.425-14.967l-0.344-12.034l39.236-7.847l0.634,9.821
		c0.449,6.968,0.693,14.719,0.721,22.794l17.867-1.002l2.12,36.054l-21.363,1.78c-0.488,5.984-1.099,11.683-1.828,17.034
		c1.677,2.652,3.083,5.483,4.198,8.456c7.306,19.483,5.18,52.828,5.086,54.238l-0.477,7.144l-35.819,4.214L99.014,303.813
		L99.014,303.813z M85.407,253.262c-3.586,0.256-6.068,1.597-6.808,3.679c-0.63,1.772,0.004,3.897,1.617,5.415
		c1.223,1.151,2.368,1.734,3.405,1.734c2.314,0,5.224-2.88,6.137-6.819c-1.718-2.755-3.292-4.013-4.22-4.013
		C85.494,253.257,85.45,253.259,85.407,253.262z"></path>
	<path class="st0" d="M171.389,331.924c-1.708-9.394-5.399-67.717-3.829-81.846l0.741-6.665l37.793-5.213l2.345,64.859l10.022,2.004
		l-9.617,32.971l-36.124,1.204L171.389,331.924z"></path>
	<path class="st0" d="M255.176,347.936c1.638-12.017,2.431-31.529,2.276-55.554l-30.803,2.392v-35.96l7.072-1.286
		c1.759-0.32,6.099-0.865,22.813-2.008c-0.477-10.656-0.999-17.113-1.271-18.526l-1.976-10.244l10.422-0.055h31.438l0.374,8.222
		c0.258,5.668,0.399,11.753,0.424,18.176c9.665-0.553,16.622-0.927,16.712-0.932l9.446-0.508l-1.432,35.818l-25.652,1.992
		c-1.605,31.742-4.757,58.137-4.791,58.42l-0.805,6.681l-35.761,4.47L255.176,347.936z"></path>
	<polygon class="st0" points="338.944,281.477 501.76,278.959 500.324,314.871 338.944,318.215 	"></polygon>
	<polygon class="st0" points="294.3,214.759 328.47,211.652 328.47,255.479 296.788,257.063 	"></polygon>
	<polygon class="st0" points="319.004,214.759 353.175,211.652 353.175,255.479 321.493,257.063 	"></polygon>
	<path class="st1" d="M98.963,228.98c-6.969-2.075-14.816-2.064-22.843,0.612c-20.212,6.737-24.517,26.185-17.779,43.028
		c6.738,16.843,30.944,22.459,43.606,10.87c1.303-1.192,2.52-2.673,3.662-4.394c1.359,8.207,2.018,16.86,2.018,24.717l19.089-2.246
		c0,0,2.18-32.675-4.557-50.641c-1.287-3.43-3.026-6.572-5.135-9.367c1.296-8.648,2.193-17.888,2.767-27.117l20.335-1.695
		l-1.123-19.089l-18.446,1.034c0.193-11.692-0.079-22.603-0.643-31.352l-22.458,4.492c0.274,9.615,0.549,19.094,0.791,28.112
		l-79.394,4.452v22.458l79.887-6.657C98.834,220.702,98.91,224.98,98.963,228.98z M98.578,256.541
		c-1.123,12.352-13.795,21.942-24.266,12.087c-8.484-7.986-5.24-22.833,10.481-23.956c5.749-0.411,10.346,3.938,13.866,10.879
		C98.633,255.896,98.606,256.228,98.578,256.541z"></path>
	<path class="st1" d="M176.12,251.029c-1.497,13.475,2.246,71.12,3.743,79.355l22.459-0.749l5.24-17.967l-7.486-1.497l-2.246-62.136
		L176.12,251.029z"></path>
	<path class="st1" d="M313.119,260.761c0,0-11.567,0.622-25.828,1.46c0.115-9.093,0.022-18.201-0.374-26.914H263.71
		c0.533,2.665,1.256,13.683,1.763,28.251c-14.251,0.919-26.974,1.854-30.21,2.443v19.464l30.7-2.384
		c0.363,23.292-0.02,49.647-2.252,66.018l17.967-2.246c0,0,3.649-30.289,5.087-65.388l25.607-1.989L313.119,260.761z"></path>
	<polygon class="st1" points="347.556,309.422 492.042,306.427 492.79,287.712 347.556,289.957 	"></polygon>
	<polygon class="st1" points="319.857,221.084 303.387,222.581 304.885,248.035 319.857,247.286 	"></polygon>
	<polygon class="st1" points="344.562,247.286 344.562,221.084 328.092,222.581 329.589,248.035 	"></polygon>
</g>
</svg>
