<!--?xml version="1.0" encoding="utf-8"?-->
<!-- Generator: Adobe Illustrator 22.1.0, SVG Export Plug-In . SVG Version: 6.00 Build 0)  -->
<svg version="1.1" id="_x35_" xmlns="http://www.w3.org/2000/svg" xmlns:xlink="http://www.w3.org/1999/xlink" x="0px" y="0px" viewBox="0 0 512 512" style="enable-background:new 0 0 512 512;" xml:space="preserve">
<style type="text/css">
	.st0{fill:#231815;}
	.st1{fill:#FFFFFF;}
</style>
<g>
	<path class="st0" d="M59,326.1c-4.1,0-8.2-1.2-12.1-3.6c-10.2-6.2-18.8-22.6-26.3-50.1c-5.5-20.2-8.8-40.4-9.9-47.1
		c-0.1-0.9-0.2-1.5-0.3-1.8c-0.3-1.6-0.5-4.4,1.8-7.3c3.4-4.4,21.2-16.2,30.2-16.2c3.1,0,5.9,1.2,7.8,3.3c1.8,2,2.7,4.7,2.5,7.6
		c0.1,2.8,2.5,17.5,6.1,33.9c2.7,12.1,4.9,20,6.6,25.1l0.4-9.2l11.6,6.6c0.1,0.1,3.7,2.1,7.2,4.4c2.2,1.4,3.9,2.6,5.2,3.6
		c4.4,3.4,5.9,7.1,4.6,11.1l0,0.1C91.4,295.7,79.8,326.1,59,326.1z"></path>
	<path class="st0" d="M136.3,273.6c-8.7,0-15-3.5-16.7-9.3c-1.5-4.8-9.4-36.3-11.1-46c-0.6-3.2,0.4-6.4,2.6-9.1
		c4.7-5.6,15.6-9.4,22.9-9.4c9.7,0,12.4,6.3,13,8.2c1.8,5.7,10,42.9,8.7,52.5C154.8,268.4,147,273.6,136.3,273.6
		C136.3,273.6,136.3,273.6,136.3,273.6z"></path>
	<path class="st0" d="M225.5,313.9c-3.1,0-6-0.9-8.5-2.6c-2.7-1.9-6.2-5.6-11.1-19.3c-2.8-7.9-5.8-18.4-8.5-29.6
		c-1.6-6.8-9.5-41.5-6.6-54.7l1-4.7l4.7-1.3c0.4-0.1,8.9-2.5,22.4-2.5c2.4,0,4.7,0.1,7.1,0.2l8.4,0.5l-0.8,8.4
		c-0.6,5.8,2.1,31.4,4.5,51.7l0.6-0.3c1.4-0.7,2.9-1.1,4.5-1.1c3.2,0,7.8,1.5,12.2,8.5c1.2,2,7.2,12.3,3.2,20.3
		c-1.5,3.1-6.1,9.3-11.6,14.7C239.2,310,232,313.9,225.5,313.9z"></path>
	<path class="st0" d="M306.3,276.6c-11.3,0-12.8-7.6-13-9.1c-0.1-1.2-0.6-4.9-1.2-10.1c-1.4-12.1-3.7-32.3-4.8-39.9l-0.9-6.6
		l6.3-2.2c1-0.4,10.3-3.5,17.7-3.5c9.8,0,12.7,5.7,13.5,8.1c1.7,5,2.8,20.1,3.2,26.4c1.4,21.5,0.2,25-0.2,26.3
		C324.2,274.4,312.3,276.6,306.3,276.6C306.3,276.6,306.3,276.6,306.3,276.6z"></path>
	<path class="st0" d="M419.9,316.3c-5,0-9.6-0.6-9.8-0.7l-3.2-0.4l-2-2.5c-1.8-2.2-4.1-5.1-4.2-30.3c-7.5,4.2-14.1,7.6-16.9,8.6
		c-1.2,0.4-2.4,0.6-3.6,0.6c-4,0-7.8-2.1-10.4-5.9c-3.6-5.2-4.4-12.3-1.9-19c0.6-1.5,1.2-3.4,1.8-5.4c-0.2,0-0.4,0-0.6,0
		c-3,0-5.7-1.2-7.5-3.3c-1.1-1.3-4.6-5.3-5.6-25.6l-0.3-5.5l5-2.3c8.1-3.7,27.6-7.1,35-7.1h0.1c2.7,0,5.2,0.8,7.2,2.3
		c0.9-12.5,1.9-23.1,2.8-27.2l1.3-5.5l5.6-0.7c0.3,0,3.5-0.4,7.3-0.4c17.9,0,19.9,9.2,19.9,13.1c0,2.3-0.2,12.7-0.4,27.2
		c5.7-1.3,11.2-1.9,16.4-1.9c7.2,0,14,1.2,20.2,3.7c8.8,3.5,22.4,13.5,18.4,42.1c3,2.4,4.8,4.2,5.1,4.5l1.8,1.9l0.3,2.6
		c0.9,7.8-3.5,16.7-13.6,18l-1.4,0.2c-0.8,1.8-1.5,3.3-2,4.4c-2.8,5.3-8.9,8.3-17.1,8.3c-9.9,0-22.9-4.4-29.1-12.9
		c0,3.7,0,5.4,0.1,6c0.3,3.1-0.7,6-2.8,8.3C432.7,314.7,427.6,316.3,419.9,316.3z M438.9,262.9c-0.1,3.2-0.1,6.1-0.1,8.9
		c1-1.6,2.1-3,3.4-4.4c3-3.2,6.8-5.6,11-7.1C448.7,260.7,443.8,261.6,438.9,262.9z"></path>
	<path class="st1" d="M18.4,221.8c0.5,2,11.4,80.8,32.7,93.7c21.3,12.9,35.2-30.2,35.7-31.7c0.5-1.5-13.4-9.4-13.4-9.4
		s-0.5,10.9-8.4,10.9s-20.8-69.9-20.3-74.9C45.5,201.8,17.9,219.9,18.4,221.8z"></path>
	<path class="st1" d="M116.5,216.9c1.7,9.2,9.4,40.2,10.9,45.1c1.5,5,19.3,5,20.3-2.5c1-7.4-6.4-42.6-8.4-49.1
		C137.4,204,115.5,211.4,116.5,216.9z"></path>
	<path class="st1" d="M198.8,209.4c-3.5,15.9,13.4,88.7,22.8,95.2c9.4,6.4,27.3-15.9,29.7-20.8c2.5-5-5-18.8-8.9-16.9
		c-4,2-10.9,5.5-10.9,5.5s-6.9-54.5-5.9-64.9C209.2,206.5,198.8,209.4,198.8,209.4z"></path>
	<path class="st1" d="M319.3,263.5c1.5-4.5-1-41.6-3-47.6c-2-5.9-20.8,0.5-20.8,0.5c1.5,10.9,5.5,46.1,5.9,50.1
		C301.9,270.4,317.8,267.9,319.3,263.5z"></path>
	<path class="st1" d="M409.7,246.4c-6.7,3.5-13.2,7.3-19.4,11c9.2-19.8,12.5-32,5.6-31.9c-7,0-25.1,3.3-31.7,6.4
		c0,0,0.8,17.4,3.6,20.6c2.8,3.2,14.9-8,14.9-8s-4.1,16.6-7.1,24.9c-3,8.2,2,15,5.6,13.8c3-1.1,14.9-7.2,27.9-15.1
		c-0.4,19.9,0.1,36.7,2.3,39.4c0,0,19.7,2.8,19.1-3.7c-0.3-3,0-24.3,0.4-46.9c16.2-5.5,36-7.4,39.9-0.1c1.6,2.9,2.2,6.9,2.3,11.2
		c-1.1-0.3-2.3-0.6-3.4-0.8c-14.7-3-27.2,6.2-26.6,19.6c0.6,13.5,30,19.9,34.5,11.2c1.2-2.2,3.2-6.9,5.1-12.6c2,1.2,3.6,2.5,4.5,3.8
		c7.5-1,6.6-9,6.6-9s-2.9-3.1-8-6.4c3-15.1,2.5-32.3-12.5-38.2c-13-5.1-27.5-3.5-42,1.5c0.3-18.9,0.7-35.2,0.6-38
		c0-7-18.1-4.7-18.1-4.7C412.5,199.8,410.7,222.6,409.7,246.4z M465.1,290.2c-6,1.1-11.5-6.2-5.8-9.8c2.4-1.5,7.1-1.2,12,0.1
		C469.8,285.8,467.5,289.8,465.1,290.2z"></path>
</g>
</svg>
