<!--?xml version="1.0" encoding="utf-8"?-->
<!-- Generator: Adobe Illustrator 22.1.0, SVG Export Plug-In . SVG Version: 6.00 Build 0)  -->
<svg version="1.1" id="_x37_" xmlns="http://www.w3.org/2000/svg" xmlns:xlink="http://www.w3.org/1999/xlink" x="0px" y="0px" viewBox="0 0 512 512" style="enable-background:new 0 0 512 512;" xml:space="preserve">
<style type="text/css">
	.st0{fill:#040000;}
	.st1{fill:#FFFFFF;}
</style>
<g>
	<path class="st0" d="M64.3,175c-8.5,0-26.6-6.3-30.2-8.2c-4.8-2.4-4.3-8-4.1-9.9c0.2-1.8,0.7-4.4,1.4-7.6c1.2-5.4,3-12.9,5.5-22.7
		c4.7-17.6,10.8-39,15.2-54.6c2.9-10.2,5.4-19,5.8-20.9l-0.3-1.6c0.8-3.7,4.5-6.1,8.1-5.4l4.1,2.6c32.4,5.9,30.9,3.3,32.4,5.6
		c2,3.1,1.1,10.7-1.1,19.2c-1.3,4.9-3.1,11.7-5.7,20.6c-4.7,16.1-10.5,35.2-15.1,50.6c-3.3,11-6.5,21.2-6.8,22.8
		C73,168.1,73.1,175,64.3,175L64.3,175z"></path>
	<path class="st0" d="M159.8,179.3c-6,0-11.7-0.8-13.9-1.3c-4.8-1.2-6.2-5.7-8.3-13.6c-1.4-4.9-3-11.6-4.9-20.6
		c-3.6-16-7.6-35.5-10.5-49.6c-1.6-8.1-3-14.6-3.6-17.5c0-0.2-0.1-0.4-0.2-0.5l-1.4-2.8c-0.1-0.2-0.2-0.4-0.2-0.6
		c-0.5-3,1.4-5.9,4.4-6.7c0.2,0,0.3-0.1,0.5-0.1l14.3-0.6c0.2,0,0.4,0,0.5-0.1l14.1-3.8c4.1-1.1,8.1,1.8,8.4,6l0,0
		c0,0.1,0,0.3,0.1,0.4c1.2,4.8,6.4,26.2,11.5,47.7c5.2,22.3,10.5,44.7,10.9,49.3c0.3,3.2,1.9,8.1-0.2,10.6
		C177.9,179.4,171.8,175.2,159.8,179.3L159.8,179.3z"></path>
	<path class="st0" d="M197.2,95.6c-7,0-13.9-1.9-20.1-5.7c-9.2-5.5-14.5-21-12.9-37.6c1.8-19,12.1-33.6,27.5-39.3
		c4.8-1.7,9.9-2.7,14.8-2.7c14.6,0,27.8,7.8,34.4,20.2c6.5,12.1,5.5,26.2-2.7,38.5C223.6,90.9,207.8,95.6,197.2,95.6L197.2,95.6z
		 M206.4,44.9c-0.1,0-0.2,0-0.5,0c-3.5,0.7-5.4,4.8-6.1,6.5c-1.6,4.2-1.5,8.2-0.9,10c9.1-0.8,9.4-10.2,9.4-11.3
		C208.2,47.1,207.2,44.9,206.4,44.9z"></path>
	<path class="st0" d="M104.6,397.3c1.9-16.8,2.4-39.1,3.2-55.4C60.3,349,54.4,349,52.4,349l0,0c-1.3,0-2.1-0.1-3-0.4
		c-7-1.9-14.9-13.4-13.9-22.8c0.3-2.7,2.3-11.5,14.7-12.4c8.3-1.9,34.5-4.8,58.2-11.1c-0.1-5.7-0.3-10.7-0.5-14.7
		c-33.2,10.7-35.2,10.7-36.1,10.7c-7.1,0-9-8-11-16.6c-1.4-5.6-2.3-11.2-2.3-11.4l-0.1-0.4c-0.5-3,1.1-5.9,3.8-7.2l0.3-0.2
		c37.2-13.5,93.1-39.6,96.8-44l0.5-0.3l0.6-0.2c0.7-0.3,4.2-1.6,7.7-1.6c5,0,7.6,2.6,8.6,4.2c1,1.5,2.2,3.3,2.9,19.6
		c0.2,4.5,0.5,15.3-0.3,18.5c-1.1,4.3-4.7,5.8-13.5,9.1c-4.3,1.6-9.9,3.7-16.9,6c0.3,5.6,0.3,12.7,0.1,20.9
		c17.9-0.7,38.5-6.6,43.9-9c0.5-0.2,1.2-0.4,1.6-0.4c2.7,0,5.2,1.2,6.8,3.4c1.5,2,3.4,8.4-4.8,35.3l-1.3,4.2l-4.4,0.7
		c-0.2,0-20,3.2-44.2,7c-1.7,23.6-4,45.4-4.6,50.2c-0.3,2.9-1.8,8.1-8.7,10.5c-3.2,1.1-6.8,1.4-11.1,1.6c-3.2,0.2-6.8,0.5-10.7,1.2
		l-2.4,0.4c-3.5,0.6-5.6,3.3-5.2-0.2L104.6,397.3z"></path>
	<path class="st0" d="M255.4,302.6c-2.2-0.7-3.4-3-2.6-5.1l17.1-45.8l11.8-37.6c0.9-2.4,3.2-4,5.8-3.9l18.5,2.1l22-0.2
		c3.2,0.2,5.3,3.3,4.5,6.4l-16,47.1l-15.4,45.4c-0.8,2.6-3.5,4.1-6.1,3.3l-19.3-7.8L255.4,302.6z"></path>
	<path class="st0" d="M382.6,323.7c-5.8,2.6-7.3-1.7-7.8-4.9c-0.3-1.9-6.5-20.2-12.4-39.4c-5.5-17.8-11.2-36.5-13.2-42.8l-1.6-2.7
		c-1.1-3.3,1-6.8,4.4-7.7l6,0.6c1.5-0.4,6.9-1.5,15.4-3.3c7.1-1.6,14.3-5.1,15.8-5.4l0,0c2.8-0.6,5.7,1.1,6.7,3.8l1,3
		c0.1,0.2,6.4,19.3,12.5,38.3c3.6,11.1,6.3,20.1,8.1,26.6c1.2,4,1.9,7,2.5,9.1c0.3,1.4,0.3,2.4,0.6,3.2c3.2,7.5-1.5,9.1-4.7,8.5
		c-0.5-0.1-2.2,1-3.8,1.7c-4.2,1.9-7.8,3.6-10.9,5C391.3,322,386,323.7,382.6,323.7L382.6,323.7z"></path>
	<path class="st0" d="M435.6,231.1c-7.7,0-15.2-1.6-21.8-4.8c-12.3-5.9-19.2-24.6-16.1-43.6c3.4-21,18-35.3,39-37.9
		c2.8-0.4,5.5-0.6,8.1-0.6c18.9,0,28.1,9.3,32.4,17.2c8.5,15.3,5,36.3-2.9,49C466.1,223.4,452,231.1,435.6,231.1
		C435.7,231.1,435.7,231.1,435.6,231.1z M441.8,181.8c-0.6,0-1.9,0.1-4.2,1.1c-4.6,1.9-7.1,7.9-6.7,12.2c0.3,3.3,1.9,3.6,2.6,3.7
		c0.6,0.1,1.1,0.2,1.6,0.2c4.7,0,6.7-6.7,7.5-10.7s0.1-6.1-0.3-6.5l0,0C442.3,181.9,442.1,181.8,441.8,181.8z"></path>
	<path class="st0" d="M351,499c-5.5,0-13.5-0.3-19.3-1.6l-4.4-1l-1-4.4c-1.5-6.6-1.8-18.1-1.2-35.9c-30.2,4.9-38.5,6-41.1,6
		c-0.4,0-0.9,0-1.2-0.1c-10.2-1.3-10.9-18-11.9-24.3c-2.8-16.6,6.8-17.6,11.4-16.5c3.6,0.9,14.3-1.9,27.5-3.9
		c5.5-0.8,11.5-1.6,17.8-2.5c0.1-1.9,0.3-3.8,0.4-5.6c0.2-2.9,0.5-5.7,0.7-8.4c-18.1,5.9-20.7,5.9-22,5.9c-1.1,0-2-0.2-3-0.6
		c-6.6-2.6-12.1-16.2-11.6-22.9c0.4-5.5,3.9-8.3,7.1-9.2c3.9-1.4,29.1-12.5,48.3-22.2c16.8-8.4,32.2-17.8,36.4-19.6l3-1.4
		c2.8-1.2,6,0.2,7,3l-0.7,2.4c0.1,0.3,2.6,7,4.8,14.2c4.1,13.5,7.7,22.6,3,24.1c-3.6,1.3-6,1.6-32.1,12.1
		c-0.3,5.9-0.7,13.5-1.1,22.6c21.3-1,36.8-4.3,44.3-4.3c1.2,0,2.3-1.7,3.2-1.6h0.2c3.1-0.2,5.8,2.3,5.8,5.4v1.2
		c6.9,20.7,3.2,25.9,1.9,27.6c-1.6,2.3-4.3,3.7-7.2,3.8c-3.2,0.2-27.4,4.2-50.3,8c-1.2,23.3-2.2,42.8-2.2,42.8l-0.2,4.2
		c-0.2,2.8-2.4,5.1-5.3,5.2l-1.4,0.1C356.7,501.7,354.5,499,351,499z"></path>
	<path class="st1" d="M66.7,164C67.5,159.5,97.8,63.3,96,60.7c-1.7-2.6-31.2-8-31.2-8c-1.7,8-31.2,106.1-27.6,107.8
		C40.8,162.3,65.7,168.5,66.7,164z"></path>
	<path class="st1" d="M147.7,171.2c3.6,0.9,27.6,3.6,26.8-5.3s-22.3-96.3-22.3-96.3l-26.8,5.3C128.1,86.4,144.1,170.2,147.7,171.2z"></path>
	<path class="st1" d="M194.1,19.6c-29.4,10.7-27.1,55.9-13.4,64.2c13.4,8,33.8,8,51.7-18.7S223.4,8.9,194.1,19.6z M197.8,68.6
		c-10.5,0.1-8.1-27.7,6.8-30.5C219.5,35.2,220.2,68.3,197.8,68.6z"></path>
	<path class="st1" d="M51.3,341.7c2.5,0.8,32.5-3.5,63.9-8.1c-0.6,16.8-1.9,36.6-4.5,58.8c13.5-2.4,23.8,0,24.5-7.2
		c0.4-3.6,3-28.6,4.9-55.6c27-4.2,49.7-7.9,49.7-7.9s8.7-28.5,3.2-27.7c-2.3,0.3-24.8,4.3-51.4,9.1c0.6-13.6,0.7-26-0.1-34.4
		c17.1-5.8,30.6-10.8,30.9-11.9c0.8-3.2,0-30.2-1.6-32.5c-1.6-2.4-7.9,0-7.9,0c-4,2.4-97.4,44.4-97.4,44.4s4,22.2,6.3,22.2
		c1.1,0,20.7-6,42.4-13.1c0.5,4.8,1.2,15.1,1.3,30.1c-29.1,5.3-56.9,10.6-64.3,12.3C34.6,321.1,45.7,340.1,51.3,341.7z"></path>
	<polygon class="st1" points="296.5,305.4 323.3,220.5 289.2,218.5 261.8,295.4 	"></polygon>
	<path class="st1" d="M381.5,316.1c1.4,3.3,30.1-11.3,32.1-12s-23.4-76.9-23.4-76.9s-31.4,6.7-34.1,7.4
		C356.1,234.6,380.1,312.7,381.5,316.1z"></path>
	<path class="st1" d="M416.8,219.8c15.4,7.4,39.5,6,51.5-13.4c12-19.4,11.3-60.2-30.7-54.8C395.5,157,398.5,211,416.8,219.8z
		 M434.9,176.4c12.7-5.3,16.7,3.3,14.7,13.4c-2,10-7.4,18-17.4,16C419.4,203.3,422.2,181.7,434.9,176.4z"></path>
	<path class="st1" d="M414.9,412.4c-7.7-0.6-30.1,1.9-54.3,5.2c0.7-14.1,1.4-27.1,1.7-35.7c16.6-6,30.7-11.6,31.8-13
		c2.7-3.3-7.4-30.1-7.4-30.1c-9.4,4-80.2,40.8-85.5,42.1c-5.3,1.4,2,17.4,5.3,18.7c1.3,0.5,14.4-3.5,30.2-8.8
		c-0.6,8.3-1.5,19-2.2,30.3c-24.1,3.4-45.7,6.7-51.4,7.3c-8.7,0.7-4.7,26.1,0.7,26.8c2.2,0.3,23.8-3.2,49-7.3
		c-1,18.2-1.3,34.7,0.6,42.8c8.7,2,23.4,1.4,23.4,1.4s1.2-22.7,2.5-48.5c28.3-4.8,54.3-9,57-9C422.2,434.4,414.9,412.4,414.9,412.4z
		"></path>
</g>
</svg>
