<!--?xml version="1.0" encoding="utf-8"?-->
<!-- Generator: Adobe Illustrator 22.1.0, SVG Export Plug-In . SVG Version: 6.00 Build 0)  -->
<svg version="1.1" id="_x32_" xmlns="http://www.w3.org/2000/svg" xmlns:xlink="http://www.w3.org/1999/xlink" x="0px" y="0px" viewBox="0 0 512 512" style="enable-background:new 0 0 512 512;" xml:space="preserve">
<style type="text/css">
	.st0{fill:#040000;}
</style>
<g>
	<path class="st0" d="M88.7,29.5c-4.4,9.1-17.1,111.1-15.9,114.1c1.1,2.9,12.3,3.6,18.1,2.5c5.8-1.1,8.3-4,8.3-4
		S109.8,36,110.8,30.6C111.9,25.3,89.8,27.4,88.7,29.5z"></path>
	<path class="st0" d="M160.4,142.1c-0.7-6.1-5.4-73.1-5.8-77.5c-0.4-4.4-19.9,0-19.9,5c0,7.6,4,71.3,5.4,75.3
		C141.6,149,161.1,148.3,160.4,142.1z"></path>
	<path class="st0" d="M191.5,64.4c13.8-3.3,17.7-19.2,17.4-31.5c-0.4-12.3-13.8-24.2-27.2-22.4c-15.2,2-20.9,14.5-20.3,30.1
		C162.1,56,177.8,67.6,191.5,64.4z M183.9,27.4c5-0.4,9,0,10.5,8.7s-6.5,19.9-12.7,14.2C175.6,44.4,175.5,28,183.9,27.4z"></path>
	<path class="st0" d="M123.7,250.2c-2.9,0-5.8,22.1-0.7,21.7c2.2-0.2,23.1-4.4,46-9.2c-2.5,20.1-5.2,38.5-6.5,42.5
		c1.5,6.1,15.9,5.4,18.1,2.1c1.1-1.6,3.7-24.2,6.1-48.4c22.7-4.8,43.2-9.4,44.6-10.3c3.3-1.8,1.5-13,1.5-13
		c-7.8-0.5-25.3,1.5-44.2,4.1c1.5-15.8,2.5-30.1,2.9-37.3c12.6-4,22.8-7.5,24-8.7c3.3-3.3-6.5-23.6-13.4-21.3
		c-8.3,2.9-64.1,30.1-66.2,32.2s-0.4,13.4,3.3,13c1.7-0.2,18.2-4.8,35.5-10c-0.2,6.5-1.5,19.8-3.1,34.6
		C150,245.3,130.1,248.8,123.7,250.2z"></path>
	<path class="st0" d="M304,323.9c1.9-4.6,7.8-70.1,7.5-73c-0.3-2.9-17.6,1.9-19.8,6.5c-3.2,9.4-10.1,68.8-9.7,71.7
		C282.3,332,302.1,328.5,304,323.9z"></path>
	<path class="st0" d="M345,267.7c-1.6,17.6,2.9,65.3,3.6,69.4c0.7,4.2,12.6,1.6,15.9,1.9c3.2,0.3,5.8-1.3,5.8-1.3
		s-9.7-63.6-9.4-68.2C361.2,265.1,345.9,266.8,345,267.7z"></path>
	<path class="st0" d="M403.7,230.1c-11.1-3.6-24.3,1.6-28.5,15.2c-4.2,13.7,3.9,29.3,15.9,30.6c9.7,1,18.8-4.8,24.1-17.6
		C420.2,245.7,414.7,233.7,403.7,230.1z M392.7,262.2c-5.2-1-7.8-10.1-3.6-16.9c4.2-6.8,14.3-4.6,14.9,1.9S402.1,263.6,392.7,262.2z
		"></path>
	<path class="st0" d="M385.4,494.5c1.5-3.4,4.2-30.9,6.2-56.6c16.9-4.5,43.8-10.4,43.8-10.4s4.8-14.7,3.6-15.1
		c-1.2-0.3-28.6,5-46.3,9.4c0.8-11.6,1.2-21.4,1.1-26.4c11.6-5,21.2-9.3,22.2-10.3c2.6-2.6-14-18.8-19.8-15.2
		c-12.6,6.2-51.9,30.6-54.5,33.5c-2.6,2.9,7.8,10.7,7.8,10.7s11.8-4.8,25.6-10.7c0.3,4.2,0.2,12.8-0.2,23.1
		c-15.8,3.7-36.4,7.4-49.4,9.9c-6.5,1,1.3,16.6,5.5,18.1c3.6,1.4,30.4-6.5,43-11c-1.4,23.7-3.5,49.2-4.7,53.7
		C366.9,505.8,382.8,500.6,385.4,494.5z"></path>
</g>
</svg>
